{
	"asset":{
		"generator":"Khronos glTF Blender I/O v3.6.28",
		"version":"2.0"
	},
	"scene":0,
	"scenes":[
		{
			"name":"Scene",
			"nodes":[
				0
			]
		}
	],
	"nodes":[
		{
			"mesh":0,
			"name":"Cylinder"
		}
	],
	"materials":[
		{
			"doubleSided":true,
			"name":"Material.010",
			"pbrMetallicRoughness":{
				"baseColorTexture":{
					"index":0
				},
				"metallicFactor":0,
				"roughnessFactor":0.5
			}
		}
	],
	"meshes":[
		{
			"name":"Cylinder.002",
			"primitives":[
				{
					"attributes":{
						"POSITION":0,
						"NORMAL":1,
						"TEXCOORD_0":2
					},
					"indices":3,
					"material":0
				}
			]
		}
	],
	"textures":[
		{
			"sampler":0,
			"source":0
		}
	],
	"images":[
		{
			"bufferView":4,
			"mimeType":"image/png",
			"name":"Piet"
		}
	],
	"accessors":[
		{
			"bufferView":0,
			"componentType":5126,
			"count":1684,
			"max":[
				0.465901255607605,
				0.037320807576179504,
				0.057792019098997116
			],
			"min":[
				-0.49513962864875793,
				-0.035579219460487366,
				-0.04101676866412163
			],
			"type":"VEC3"
		},
		{
			"bufferView":1,
			"componentType":5126,
			"count":1684,
			"type":"VEC3"
		},
		{
			"bufferView":2,
			"componentType":5126,
			"count":1684,
			"type":"VEC2"
		},
		{
			"bufferView":3,
			"componentType":5123,
			"count":2820,
			"type":"SCALAR"
		}
	],
	"bufferViews":[
		{
			"buffer":0,
			"byteLength":20208,
			"byteOffset":0,
			"target":34962
		},
		{
			"buffer":0,
			"byteLength":20208,
			"byteOffset":20208,
			"target":34962
		},
		{
			"buffer":0,
			"byteLength":13472,
			"byteOffset":40416,
			"target":34962
		},
		{
			"buffer":0,
			"byteLength":5640,
			"byteOffset":53888,
			"target":34963
		},
		{
			"buffer":0,
			"byteLength":275401,
			"byteOffset":59528
		}
	],
	"samplers":[
		{
			"magFilter":9729,
			"minFilter":9987
		}
	],
	"buffers":[
		{
			"byteLength":334932,
			"uri":"data:application/octet-stream;base64,"
		}
	]
}
