{
	"asset":{
		"generator":"Khronos glTF Blender I/O v3.6.28",
		"version":"2.0"
	},
	"scene":0,
	"scenes":[
		{
			"name":"Scene",
			"nodes":[
				0
			]
		}
	],
	"nodes":[
		{
			"mesh":0,
			"name":"Cube.002"
		}
	],
	"materials":[
		{
			"doubleSided":true,
			"name":"Material.002",
			"pbrMetallicRoughness":{
				"baseColorTexture":{
					"index":0
				},
				"metallicFactor":0,
				"roughnessFactor":0.5
			}
		},
		{
			"doubleSided":true,
			"name":"Material.003",
			"pbrMetallicRoughness":{
				"baseColorFactor":[
					0.04839012399315834,
					0.8000000715255737,
					0.7429468631744385,
					1
				],
				"metallicFactor":0,
				"roughnessFactor":0.5
			}
		}
	],
	"meshes":[
		{
			"name":"Cube.002",
			"primitives":[
				{
					"attributes":{
						"POSITION":0,
						"NORMAL":1,
						"TEXCOORD_0":2
					},
					"indices":3,
					"material":0
				},
				{
					"attributes":{
						"POSITION":4,
						"NORMAL":5,
						"TEXCOORD_0":6
					},
					"indices":7,
					"material":1
				}
			]
		}
	],
	"textures":[
		{
			"sampler":0,
			"source":0
		}
	],
	"images":[
		{
			"bufferView":4,
			"mimeType":"image/png",
			"name":"Shelter"
		}
	],
	"accessors":[
		{
			"bufferView":0,
			"componentType":5126,
			"count":1134,
			"max":[
				0.5023995637893677,
				1.007863163948059,
				1.0828242301940918
			],
			"min":[
				-1.4561249017715454,
				-0.916903555393219,
				-0.2742806077003479
			],
			"type":"VEC3"
		},
		{
			"bufferView":1,
			"componentType":5126,
			"count":1134,
			"type":"VEC3"
		},
		{
			"bufferView":2,
			"componentType":5126,
			"count":1134,
			"type":"VEC2"
		},
		{
			"bufferView":3,
			"componentType":5123,
			"count":1938,
			"type":"SCALAR"
		},
		{
			"bufferView":5,
			"componentType":5126,
			"count":32,
			"max":[
				-0.014768574386835098,
				-0.06017111986875534,
				0.04909724369645119
			],
			"min":[
				-0.3204162120819092,
				-0.3658187687397003,
				-0.2565504312515259
			],
			"type":"VEC3"
		},
		{
			"bufferView":6,
			"componentType":5126,
			"count":32,
			"type":"VEC3"
		},
		{
			"bufferView":7,
			"componentType":5126,
			"count":32,
			"type":"VEC2"
		},
		{
			"bufferView":8,
			"componentType":5123,
			"count":48,
			"type":"SCALAR"
		}
	],
	"bufferViews":[
		{
			"buffer":0,
			"byteLength":13608,
			"byteOffset":0,
			"target":34962
		},
		{
			"buffer":0,
			"byteLength":13608,
			"byteOffset":13608,
			"target":34962
		},
		{
			"buffer":0,
			"byteLength":9072,
			"byteOffset":27216,
			"target":34962
		},
		{
			"buffer":0,
			"byteLength":3876,
			"byteOffset":36288,
			"target":34963
		},
		{
			"buffer":0,
			"byteLength":34357,
			"byteOffset":40164
		},
		{
			"buffer":0,
			"byteLength":384,
			"byteOffset":74524,
			"target":34962
		},
		{
			"buffer":0,
			"byteLength":384,
			"byteOffset":74908,
			"target":34962
		},
		{
			"buffer":0,
			"byteLength":256,
			"byteOffset":75292,
			"target":34962
		},
		{
			"buffer":0,
			"byteLength":96,
			"byteOffset":75548,
			"target":34963
		}
	],
	"samplers":[
		{
			"magFilter":9729,
			"minFilter":9987
		}
	],
	"buffers":[
		{
			"byteLength":75644,
			"uri":"data:application/octet-stream;base64,"
		}
	]
}
