{
	"asset":{
		"generator":"Khronos glTF Blender I/O v3.6.28",
		"version":"2.0"
	},
	"scene":0,
	"scenes":[
		{
			"name":"Scene",
			"nodes":[
				4
			]
		}
	],
	"nodes":[
		{
			"name":"Bone.002",
			"rotation":[
				3.5583898050361995e-09,
				-9.247304433301906e-08,
				0.00033548162900842726,
				0.9999999403953552
			],
			"scale":[
				1,
				0.9999999403953552,
				1
			],
			"translation":[
				2.000888343900442e-11,
				0.5946862697601318,
				-1.2877876542916056e-10
			]
		},
		{
			"children":[
				0
			],
			"name":"Bone.001",
			"rotation":[
				0.00971232634037733,
				3.418589145098849e-08,
				-0.0006366170127876103,
				0.9999526143074036
			],
			"scale":[
				0.9999999403953552,
				1,
				1
			],
			"translation":[
				-2.4488144845236093e-10,
				1.3645349740982056,
				-1.221479806190473e-09
			]
		},
		{
			"children":[
				1
			],
			"name":"Bone",
			"rotation":[
				0.7002040147781372,
				0.0015818236861377954,
				-0.001581839518621564,
				0.7139393091201782
			]
		},
		{
			"mesh":0,
			"name":"Cube.002",
			"skin":0
		},
		{
			"children":[
				3,
				2
			],
			"name":"Armature"
		}
	],
	"animations":[
		{
			"channels":[
				{
					"sampler":0,
					"target":{
						"node":2,
						"path":"translation"
					}
				},
				{
					"sampler":1,
					"target":{
						"node":2,
						"path":"rotation"
					}
				},
				{
					"sampler":2,
					"target":{
						"node":2,
						"path":"scale"
					}
				},
				{
					"sampler":3,
					"target":{
						"node":1,
						"path":"translation"
					}
				},
				{
					"sampler":4,
					"target":{
						"node":1,
						"path":"rotation"
					}
				},
				{
					"sampler":5,
					"target":{
						"node":1,
						"path":"scale"
					}
				},
				{
					"sampler":6,
					"target":{
						"node":0,
						"path":"translation"
					}
				},
				{
					"sampler":7,
					"target":{
						"node":0,
						"path":"rotation"
					}
				},
				{
					"sampler":8,
					"target":{
						"node":0,
						"path":"scale"
					}
				}
			],
			"name":"ArmatureAction",
			"samplers":[
				{
					"input":7,
					"interpolation":"LINEAR",
					"output":8
				},
				{
					"input":9,
					"interpolation":"STEP",
					"output":10
				},
				{
					"input":9,
					"interpolation":"STEP",
					"output":11
				},
				{
					"input":9,
					"interpolation":"STEP",
					"output":12
				},
				{
					"input":9,
					"interpolation":"STEP",
					"output":13
				},
				{
					"input":9,
					"interpolation":"STEP",
					"output":14
				},
				{
					"input":9,
					"interpolation":"LINEAR",
					"output":15
				},
				{
					"input":7,
					"interpolation":"LINEAR",
					"output":16
				},
				{
					"input":9,
					"interpolation":"STEP",
					"output":17
				}
			]
		}
	],
	"materials":[
		{
			"doubleSided":true,
			"name":"Material",
			"pbrMetallicRoughness":{
				"baseColorFactor":[
					0.800000011920929,
					0.800000011920929,
					0.800000011920929,
					1
				],
				"metallicFactor":0,
				"roughnessFactor":0.5
			}
		}
	],
	"meshes":[
		{
			"name":"Cube.002",
			"primitives":[
				{
					"attributes":{
						"POSITION":0,
						"NORMAL":1,
						"TEXCOORD_0":2,
						"JOINTS_0":3,
						"WEIGHTS_0":4
					},
					"indices":5,
					"material":0
				}
			]
		}
	],
	"skins":[
		{
			"inverseBindMatrices":6,
			"joints":[
				2,
				1,
				0
			],
			"name":"Armature"
		}
	],
	"accessors":[
		{
			"bufferView":0,
			"componentType":5126,
			"count":72,
			"max":[
				0.3153136074542999,
				0.3153136074542999,
				3.455687999725342
			],
			"min":[
				-0.3153136074542999,
				-0.3153136074542999,
				-0.09041003882884979
			],
			"type":"VEC3"
		},
		{
			"bufferView":1,
			"componentType":5126,
			"count":72,
			"type":"VEC3"
		},
		{
			"bufferView":2,
			"componentType":5126,
			"count":72,
			"type":"VEC2"
		},
		{
			"bufferView":3,
			"componentType":5121,
			"count":72,
			"type":"VEC4"
		},
		{
			"bufferView":4,
			"componentType":5126,
			"count":72,
			"type":"VEC4"
		},
		{
			"bufferView":5,
			"componentType":5123,
			"count":108,
			"type":"SCALAR"
		},
		{
			"bufferView":6,
			"componentType":5126,
			"count":3,
			"type":"MAT4"
		},
		{
			"bufferView":7,
			"componentType":5126,
			"count":61,
			"max":[
				2.9166666666666665
			],
			"min":[
				0.4166666666666667
			],
			"type":"SCALAR"
		},
		{
			"bufferView":8,
			"componentType":5126,
			"count":61,
			"type":"VEC3"
		},
		{
			"bufferView":9,
			"componentType":5126,
			"count":2,
			"max":[
				2.9166666666666665
			],
			"min":[
				0.4166666666666667
			],
			"type":"SCALAR"
		},
		{
			"bufferView":10,
			"componentType":5126,
			"count":2,
			"type":"VEC4"
		},
		{
			"bufferView":11,
			"componentType":5126,
			"count":2,
			"type":"VEC3"
		},
		{
			"bufferView":12,
			"componentType":5126,
			"count":2,
			"type":"VEC3"
		},
		{
			"bufferView":13,
			"componentType":5126,
			"count":2,
			"type":"VEC4"
		},
		{
			"bufferView":14,
			"componentType":5126,
			"count":2,
			"type":"VEC3"
		},
		{
			"bufferView":15,
			"componentType":5126,
			"count":2,
			"type":"VEC3"
		},
		{
			"bufferView":16,
			"componentType":5126,
			"count":61,
			"type":"VEC4"
		},
		{
			"bufferView":17,
			"componentType":5126,
			"count":2,
			"type":"VEC3"
		}
	],
	"bufferViews":[
		{
			"buffer":0,
			"byteLength":864,
			"byteOffset":0,
			"target":34962
		},
		{
			"buffer":0,
			"byteLength":864,
			"byteOffset":864,
			"target":34962
		},
		{
			"buffer":0,
			"byteLength":576,
			"byteOffset":1728,
			"target":34962
		},
		{
			"buffer":0,
			"byteLength":288,
			"byteOffset":2304,
			"target":34962
		},
		{
			"buffer":0,
			"byteLength":1152,
			"byteOffset":2592,
			"target":34962
		},
		{
			"buffer":0,
			"byteLength":216,
			"byteOffset":3744,
			"target":34963
		},
		{
			"buffer":0,
			"byteLength":192,
			"byteOffset":3960
		},
		{
			"buffer":0,
			"byteLength":244,
			"byteOffset":4152
		},
		{
			"buffer":0,
			"byteLength":732,
			"byteOffset":4396
		},
		{
			"buffer":0,
			"byteLength":8,
			"byteOffset":5128
		},
		{
			"buffer":0,
			"byteLength":32,
			"byteOffset":5136
		},
		{
			"buffer":0,
			"byteLength":24,
			"byteOffset":5168
		},
		{
			"buffer":0,
			"byteLength":24,
			"byteOffset":5192
		},
		{
			"buffer":0,
			"byteLength":32,
			"byteOffset":5216
		},
		{
			"buffer":0,
			"byteLength":24,
			"byteOffset":5248
		},
		{
			"buffer":0,
			"byteLength":24,
			"byteOffset":5272
		},
		{
			"buffer":0,
			"byteLength":976,
			"byteOffset":5296
		},
		{
			"buffer":0,
			"byteLength":24,
			"byteOffset":6272
		}
	],
	"buffers":[
		{
			"byteLength":6296,
			"uri":"data:application/octet-stream;base64,"
		}
	]
}
