{
	"asset":{
		"generator":"Khronos glTF Blender I/O v3.6.28",
		"version":"2.0"
	},
	"scene":0,
	"scenes":[
		{
			"name":"Scene",
			"nodes":[
				14
			]
		}
	],
	"nodes":[
		{
			"name":"Bone.010",
			"rotation":[
				1.3981396040918526e-09,
				1.7838638344258584e-09,
				-0.00590931111946702,
				0.9999825358390808
			],
			"translation":[
				5.532056093215942e-07,
				1.548473596572876,
				1.7053025658242404e-13
			]
		},
		{
			"children":[
				0
			],
			"name":"Bone.009",
			"rotation":[
				1.978197694540995e-08,
				3.602235665312037e-08,
				0.48353180289268494,
				0.8753268718719482
			],
			"scale":[
				0.9999999403953552,
				0.9999999403953552,
				1
			],
			"translation":[
				-3.2782554626464844e-07,
				1.2974960803985596,
				-1.865174681370263e-14
			]
		},
		{
			"children":[
				1
			],
			"name":"Bone.001",
			"rotation":[
				3.2210760281259354e-08,
				-7.757031283972537e-08,
				0.2702036499977112,
				0.9628032445907593
			],
			"scale":[
				1.0000001192092896,
				1.0000001192092896,
				1.0000001192092896
			],
			"translation":[
				-1.9371509552001953e-07,
				1,
				-2.8421706042272218e-14
			]
		},
		{
			"name":"Bone.008",
			"rotation":[
				-2.401178422761774e-10,
				1.1947776101806085e-07,
				0.002225665608420968,
				0.9999974966049194
			],
			"scale":[
				1,
				0.9999999403953552,
				1
			],
			"translation":[
				1.0710211029163474e-07,
				1.7758092880249023,
				7.105427357601002e-15
			]
		},
		{
			"children":[
				3
			],
			"name":"Bone.007",
			"rotation":[
				-5.517194878734699e-08,
				-1.255560704294112e-07,
				-0.4416145086288452,
				0.8972049355506897
			],
			"scale":[
				0.9999999403953552,
				1,
				1.0000001192092896
			],
			"translation":[
				7.152557373046875e-07,
				1.4030728340148926,
				0
			]
		},
		{
			"children":[
				4
			],
			"name":"Bone.002",
			"rotation":[
				8.651813487858817e-08,
				-3.3615496164429715e-08,
				-0.3201943337917328,
				0.94735187292099
			],
			"scale":[
				1,
				1,
				1.0000001192092896
			],
			"translation":[
				-2.9802322387695312e-08,
				1,
				-3.552710290668712e-15
			]
		},
		{
			"name":"Bone.006",
			"rotation":[
				-0.17822858691215515,
				-9.867819608189166e-05,
				0.005710772704333067,
				0.9839725494384766
			],
			"scale":[
				1.0000001192092896,
				1,
				1
			],
			"translation":[
				2.599508093226177e-07,
				1.6224054098129272,
				-2.3515895009040833e-08
			]
		},
		{
			"children":[
				6
			],
			"name":"Bone.003",
			"rotation":[
				0.00023572935606352985,
				0.08085067570209503,
				0.9967219233512878,
				0.00290877977386117
			],
			"scale":[
				1.0000001192092896,
				1.000000238418579,
				1.0000050067901611
			],
			"translation":[
				0.7531485557556152,
				-0.10362529754638672,
				6.901876759002334e-08
			]
		},
		{
			"name":"Bone.005",
			"rotation":[
				-0.1814340353012085,
				-0.0005714622093364596,
				0.027771607041358948,
				0.9830107688903809
			],
			"scale":[
				0.9999999403953552,
				1.0000001192092896,
				1
			],
			"translation":[
				1.496823642810341e-08,
				1.6217193603515625,
				-5.587935447692871e-09
			]
		},
		{
			"children":[
				8
			],
			"name":"Bone.004",
			"rotation":[
				0.003179111983627081,
				0.08082272112369537,
				0.995952308177948,
				0.03920033946633339
			],
			"scale":[
				1,
				1,
				0.9999998807907104
			],
			"translation":[
				-0.7222667932510376,
				-0.17247653007507324,
				-2.1336735755994596e-07
			]
		},
		{
			"name":"Bone.012",
			"rotation":[
				-0.007441045716404915,
				1.3941480574430898e-05,
				-0.0018645271193236113,
				0.9999706149101257
			],
			"scale":[
				0.9999998807907104,
				0.9999998211860657,
				0.9999999403953552
			],
			"translation":[
				1.1175894876203074e-08,
				1.6144249439239502,
				5.062616992290714e-14
			]
		},
		{
			"children":[
				10
			],
			"name":"Bone.011",
			"rotation":[
				8.9548699122588e-08,
				-1.1771830799034433e-07,
				-0.0045453147031366825,
				0.9999896883964539
			],
			"scale":[
				1,
				1.0000001192092896,
				1.0000001192092896
			],
			"translation":[
				0,
				1.0000004768371582,
				3.3881317890172014e-21
			]
		},
		{
			"children":[
				2,
				5,
				7,
				9,
				11
			],
			"name":"Bone",
			"rotation":[
				0.7071067690849304,
				5.338507591545749e-08,
				5.338507591545749e-08,
				0.7071067690849304
			],
			"scale":[
				1.0000001192092896,
				1.0000001192092896,
				1.0000001192092896
			],
			"translation":[
				0,
				-2.8421712818535796e-14,
				-4.76837158203125e-07
			]
		},
		{
			"mesh":0,
			"name":"Cube.001",
			"skin":0
		},
		{
			"children":[
				13,
				12
			],
			"name":"Armature.001",
			"scale":[
				0.6706822514533997,
				0.6706822514533997,
				0.6706822514533997
			],
			"translation":[
				0.1033506989479065,
				0,
				2.1014645099639893
			]
		}
	],
	"animations":[
		{
			"channels":[
				{
					"sampler":0,
					"target":{
						"node":12,
						"path":"translation"
					}
				},
				{
					"sampler":1,
					"target":{
						"node":12,
						"path":"rotation"
					}
				},
				{
					"sampler":2,
					"target":{
						"node":12,
						"path":"scale"
					}
				},
				{
					"sampler":3,
					"target":{
						"node":2,
						"path":"translation"
					}
				},
				{
					"sampler":4,
					"target":{
						"node":2,
						"path":"rotation"
					}
				},
				{
					"sampler":5,
					"target":{
						"node":2,
						"path":"scale"
					}
				},
				{
					"sampler":6,
					"target":{
						"node":1,
						"path":"translation"
					}
				},
				{
					"sampler":7,
					"target":{
						"node":1,
						"path":"rotation"
					}
				},
				{
					"sampler":8,
					"target":{
						"node":1,
						"path":"scale"
					}
				},
				{
					"sampler":9,
					"target":{
						"node":0,
						"path":"translation"
					}
				},
				{
					"sampler":10,
					"target":{
						"node":0,
						"path":"rotation"
					}
				},
				{
					"sampler":11,
					"target":{
						"node":0,
						"path":"scale"
					}
				},
				{
					"sampler":12,
					"target":{
						"node":5,
						"path":"translation"
					}
				},
				{
					"sampler":13,
					"target":{
						"node":5,
						"path":"rotation"
					}
				},
				{
					"sampler":14,
					"target":{
						"node":5,
						"path":"scale"
					}
				},
				{
					"sampler":15,
					"target":{
						"node":4,
						"path":"translation"
					}
				},
				{
					"sampler":16,
					"target":{
						"node":4,
						"path":"rotation"
					}
				},
				{
					"sampler":17,
					"target":{
						"node":4,
						"path":"scale"
					}
				},
				{
					"sampler":18,
					"target":{
						"node":3,
						"path":"translation"
					}
				},
				{
					"sampler":19,
					"target":{
						"node":3,
						"path":"rotation"
					}
				},
				{
					"sampler":20,
					"target":{
						"node":3,
						"path":"scale"
					}
				},
				{
					"sampler":21,
					"target":{
						"node":7,
						"path":"translation"
					}
				},
				{
					"sampler":22,
					"target":{
						"node":7,
						"path":"rotation"
					}
				},
				{
					"sampler":23,
					"target":{
						"node":7,
						"path":"scale"
					}
				},
				{
					"sampler":24,
					"target":{
						"node":6,
						"path":"translation"
					}
				},
				{
					"sampler":25,
					"target":{
						"node":6,
						"path":"rotation"
					}
				},
				{
					"sampler":26,
					"target":{
						"node":6,
						"path":"scale"
					}
				},
				{
					"sampler":27,
					"target":{
						"node":9,
						"path":"translation"
					}
				},
				{
					"sampler":28,
					"target":{
						"node":9,
						"path":"rotation"
					}
				},
				{
					"sampler":29,
					"target":{
						"node":9,
						"path":"scale"
					}
				},
				{
					"sampler":30,
					"target":{
						"node":8,
						"path":"translation"
					}
				},
				{
					"sampler":31,
					"target":{
						"node":8,
						"path":"rotation"
					}
				},
				{
					"sampler":32,
					"target":{
						"node":8,
						"path":"scale"
					}
				},
				{
					"sampler":33,
					"target":{
						"node":11,
						"path":"translation"
					}
				},
				{
					"sampler":34,
					"target":{
						"node":11,
						"path":"rotation"
					}
				},
				{
					"sampler":35,
					"target":{
						"node":11,
						"path":"scale"
					}
				},
				{
					"sampler":36,
					"target":{
						"node":10,
						"path":"translation"
					}
				},
				{
					"sampler":37,
					"target":{
						"node":10,
						"path":"rotation"
					}
				},
				{
					"sampler":38,
					"target":{
						"node":10,
						"path":"scale"
					}
				}
			],
			"name":"ArmatureAction",
			"samplers":[
				{
					"input":7,
					"interpolation":"LINEAR",
					"output":8
				},
				{
					"input":7,
					"interpolation":"LINEAR",
					"output":9
				},
				{
					"input":10,
					"interpolation":"LINEAR",
					"output":11
				},
				{
					"input":10,
					"interpolation":"LINEAR",
					"output":12
				},
				{
					"input":7,
					"interpolation":"LINEAR",
					"output":13
				},
				{
					"input":10,
					"interpolation":"STEP",
					"output":14
				},
				{
					"input":10,
					"interpolation":"LINEAR",
					"output":15
				},
				{
					"input":7,
					"interpolation":"LINEAR",
					"output":16
				},
				{
					"input":10,
					"interpolation":"LINEAR",
					"output":17
				},
				{
					"input":10,
					"interpolation":"LINEAR",
					"output":18
				},
				{
					"input":7,
					"interpolation":"LINEAR",
					"output":19
				},
				{
					"input":10,
					"interpolation":"LINEAR",
					"output":20
				},
				{
					"input":10,
					"interpolation":"LINEAR",
					"output":21
				},
				{
					"input":10,
					"interpolation":"LINEAR",
					"output":22
				},
				{
					"input":10,
					"interpolation":"LINEAR",
					"output":23
				},
				{
					"input":10,
					"interpolation":"LINEAR",
					"output":24
				},
				{
					"input":7,
					"interpolation":"LINEAR",
					"output":25
				},
				{
					"input":10,
					"interpolation":"LINEAR",
					"output":26
				},
				{
					"input":10,
					"interpolation":"LINEAR",
					"output":27
				},
				{
					"input":7,
					"interpolation":"LINEAR",
					"output":28
				},
				{
					"input":10,
					"interpolation":"LINEAR",
					"output":29
				},
				{
					"input":7,
					"interpolation":"LINEAR",
					"output":30
				},
				{
					"input":7,
					"interpolation":"LINEAR",
					"output":31
				},
				{
					"input":10,
					"interpolation":"LINEAR",
					"output":32
				},
				{
					"input":10,
					"interpolation":"LINEAR",
					"output":33
				},
				{
					"input":7,
					"interpolation":"LINEAR",
					"output":34
				},
				{
					"input":10,
					"interpolation":"LINEAR",
					"output":35
				},
				{
					"input":7,
					"interpolation":"LINEAR",
					"output":36
				},
				{
					"input":7,
					"interpolation":"LINEAR",
					"output":37
				},
				{
					"input":10,
					"interpolation":"LINEAR",
					"output":38
				},
				{
					"input":10,
					"interpolation":"LINEAR",
					"output":39
				},
				{
					"input":7,
					"interpolation":"LINEAR",
					"output":40
				},
				{
					"input":10,
					"interpolation":"LINEAR",
					"output":41
				},
				{
					"input":10,
					"interpolation":"LINEAR",
					"output":42
				},
				{
					"input":7,
					"interpolation":"LINEAR",
					"output":43
				},
				{
					"input":10,
					"interpolation":"LINEAR",
					"output":44
				},
				{
					"input":10,
					"interpolation":"LINEAR",
					"output":45
				},
				{
					"input":7,
					"interpolation":"LINEAR",
					"output":46
				},
				{
					"input":10,
					"interpolation":"LINEAR",
					"output":47
				}
			]
		}
	],
	"materials":[
		{
			"doubleSided":true,
			"name":"Material.002",
			"pbrMetallicRoughness":{
				"baseColorFactor":[
					0.8000000715255737,
					0.7373580932617188,
					0.474211186170578,
					1
				],
				"metallicFactor":0,
				"roughnessFactor":0.5
			}
		}
	],
	"meshes":[
		{
			"name":"Cube.002",
			"primitives":[
				{
					"attributes":{
						"POSITION":0,
						"NORMAL":1,
						"TEXCOORD_0":2,
						"JOINTS_0":3,
						"WEIGHTS_0":4
					},
					"indices":5,
					"material":0
				}
			]
		}
	],
	"skins":[
		{
			"inverseBindMatrices":6,
			"joints":[
				12,
				2,
				1,
				0,
				5,
				4,
				3,
				7,
				6,
				9,
				8,
				11,
				10
			],
			"name":"Armature.001"
		}
	],
	"accessors":[
		{
			"bufferView":0,
			"componentType":5126,
			"count":228,
			"max":[
				3.1519267559051514,
				0.23607859015464783,
				4.895689964294434
			],
			"min":[
				-2.5879392623901367,
				-0.45518404245376587,
				-0.0074648200534284115
			],
			"type":"VEC3"
		},
		{
			"bufferView":1,
			"componentType":5126,
			"count":228,
			"type":"VEC3"
		},
		{
			"bufferView":2,
			"componentType":5126,
			"count":228,
			"type":"VEC2"
		},
		{
			"bufferView":3,
			"componentType":5121,
			"count":228,
			"type":"VEC4"
		},
		{
			"bufferView":4,
			"componentType":5126,
			"count":228,
			"type":"VEC4"
		},
		{
			"bufferView":5,
			"componentType":5123,
			"count":468,
			"type":"SCALAR"
		},
		{
			"bufferView":6,
			"componentType":5126,
			"count":13,
			"type":"MAT4"
		},
		{
			"bufferView":7,
			"componentType":5126,
			"count":85,
			"max":[
				3.5416666666666665
			],
			"min":[
				0.041666666666666664
			],
			"type":"SCALAR"
		},
		{
			"bufferView":8,
			"componentType":5126,
			"count":85,
			"type":"VEC3"
		},
		{
			"bufferView":9,
			"componentType":5126,
			"count":85,
			"type":"VEC4"
		},
		{
			"bufferView":10,
			"componentType":5126,
			"count":2,
			"max":[
				3.5416666666666665
			],
			"min":[
				0.041666666666666664
			],
			"type":"SCALAR"
		},
		{
			"bufferView":11,
			"componentType":5126,
			"count":2,
			"type":"VEC3"
		},
		{
			"bufferView":12,
			"componentType":5126,
			"count":2,
			"type":"VEC3"
		},
		{
			"bufferView":13,
			"componentType":5126,
			"count":85,
			"type":"VEC4"
		},
		{
			"bufferView":14,
			"componentType":5126,
			"count":2,
			"type":"VEC3"
		},
		{
			"bufferView":15,
			"componentType":5126,
			"count":2,
			"type":"VEC3"
		},
		{
			"bufferView":16,
			"componentType":5126,
			"count":85,
			"type":"VEC4"
		},
		{
			"bufferView":17,
			"componentType":5126,
			"count":2,
			"type":"VEC3"
		},
		{
			"bufferView":18,
			"componentType":5126,
			"count":2,
			"type":"VEC3"
		},
		{
			"bufferView":19,
			"componentType":5126,
			"count":85,
			"type":"VEC4"
		},
		{
			"bufferView":20,
			"componentType":5126,
			"count":2,
			"type":"VEC3"
		},
		{
			"bufferView":21,
			"componentType":5126,
			"count":2,
			"type":"VEC3"
		},
		{
			"bufferView":22,
			"componentType":5126,
			"count":2,
			"type":"VEC4"
		},
		{
			"bufferView":23,
			"componentType":5126,
			"count":2,
			"type":"VEC3"
		},
		{
			"bufferView":24,
			"componentType":5126,
			"count":2,
			"type":"VEC3"
		},
		{
			"bufferView":25,
			"componentType":5126,
			"count":85,
			"type":"VEC4"
		},
		{
			"bufferView":26,
			"componentType":5126,
			"count":2,
			"type":"VEC3"
		},
		{
			"bufferView":27,
			"componentType":5126,
			"count":2,
			"type":"VEC3"
		},
		{
			"bufferView":28,
			"componentType":5126,
			"count":85,
			"type":"VEC4"
		},
		{
			"bufferView":29,
			"componentType":5126,
			"count":2,
			"type":"VEC3"
		},
		{
			"bufferView":30,
			"componentType":5126,
			"count":85,
			"type":"VEC3"
		},
		{
			"bufferView":31,
			"componentType":5126,
			"count":85,
			"type":"VEC4"
		},
		{
			"bufferView":32,
			"componentType":5126,
			"count":2,
			"type":"VEC3"
		},
		{
			"bufferView":33,
			"componentType":5126,
			"count":2,
			"type":"VEC3"
		},
		{
			"bufferView":34,
			"componentType":5126,
			"count":85,
			"type":"VEC4"
		},
		{
			"bufferView":35,
			"componentType":5126,
			"count":2,
			"type":"VEC3"
		},
		{
			"bufferView":36,
			"componentType":5126,
			"count":85,
			"type":"VEC3"
		},
		{
			"bufferView":37,
			"componentType":5126,
			"count":85,
			"type":"VEC4"
		},
		{
			"bufferView":38,
			"componentType":5126,
			"count":2,
			"type":"VEC3"
		},
		{
			"bufferView":39,
			"componentType":5126,
			"count":2,
			"type":"VEC3"
		},
		{
			"bufferView":40,
			"componentType":5126,
			"count":85,
			"type":"VEC4"
		},
		{
			"bufferView":41,
			"componentType":5126,
			"count":2,
			"type":"VEC3"
		},
		{
			"bufferView":42,
			"componentType":5126,
			"count":2,
			"type":"VEC3"
		},
		{
			"bufferView":43,
			"componentType":5126,
			"count":85,
			"type":"VEC4"
		},
		{
			"bufferView":44,
			"componentType":5126,
			"count":2,
			"type":"VEC3"
		},
		{
			"bufferView":45,
			"componentType":5126,
			"count":2,
			"type":"VEC3"
		},
		{
			"bufferView":46,
			"componentType":5126,
			"count":85,
			"type":"VEC4"
		},
		{
			"bufferView":47,
			"componentType":5126,
			"count":2,
			"type":"VEC3"
		}
	],
	"bufferViews":[
		{
			"buffer":0,
			"byteLength":2736,
			"byteOffset":0,
			"target":34962
		},
		{
			"buffer":0,
			"byteLength":2736,
			"byteOffset":2736,
			"target":34962
		},
		{
			"buffer":0,
			"byteLength":1824,
			"byteOffset":5472,
			"target":34962
		},
		{
			"buffer":0,
			"byteLength":912,
			"byteOffset":7296,
			"target":34962
		},
		{
			"buffer":0,
			"byteLength":3648,
			"byteOffset":8208,
			"target":34962
		},
		{
			"buffer":0,
			"byteLength":936,
			"byteOffset":11856,
			"target":34963
		},
		{
			"buffer":0,
			"byteLength":832,
			"byteOffset":12792
		},
		{
			"buffer":0,
			"byteLength":340,
			"byteOffset":13624
		},
		{
			"buffer":0,
			"byteLength":1020,
			"byteOffset":13964
		},
		{
			"buffer":0,
			"byteLength":1360,
			"byteOffset":14984
		},
		{
			"buffer":0,
			"byteLength":8,
			"byteOffset":16344
		},
		{
			"buffer":0,
			"byteLength":24,
			"byteOffset":16352
		},
		{
			"buffer":0,
			"byteLength":24,
			"byteOffset":16376
		},
		{
			"buffer":0,
			"byteLength":1360,
			"byteOffset":16400
		},
		{
			"buffer":0,
			"byteLength":24,
			"byteOffset":17760
		},
		{
			"buffer":0,
			"byteLength":24,
			"byteOffset":17784
		},
		{
			"buffer":0,
			"byteLength":1360,
			"byteOffset":17808
		},
		{
			"buffer":0,
			"byteLength":24,
			"byteOffset":19168
		},
		{
			"buffer":0,
			"byteLength":24,
			"byteOffset":19192
		},
		{
			"buffer":0,
			"byteLength":1360,
			"byteOffset":19216
		},
		{
			"buffer":0,
			"byteLength":24,
			"byteOffset":20576
		},
		{
			"buffer":0,
			"byteLength":24,
			"byteOffset":20600
		},
		{
			"buffer":0,
			"byteLength":32,
			"byteOffset":20624
		},
		{
			"buffer":0,
			"byteLength":24,
			"byteOffset":20656
		},
		{
			"buffer":0,
			"byteLength":24,
			"byteOffset":20680
		},
		{
			"buffer":0,
			"byteLength":1360,
			"byteOffset":20704
		},
		{
			"buffer":0,
			"byteLength":24,
			"byteOffset":22064
		},
		{
			"buffer":0,
			"byteLength":24,
			"byteOffset":22088
		},
		{
			"buffer":0,
			"byteLength":1360,
			"byteOffset":22112
		},
		{
			"buffer":0,
			"byteLength":24,
			"byteOffset":23472
		},
		{
			"buffer":0,
			"byteLength":1020,
			"byteOffset":23496
		},
		{
			"buffer":0,
			"byteLength":1360,
			"byteOffset":24516
		},
		{
			"buffer":0,
			"byteLength":24,
			"byteOffset":25876
		},
		{
			"buffer":0,
			"byteLength":24,
			"byteOffset":25900
		},
		{
			"buffer":0,
			"byteLength":1360,
			"byteOffset":25924
		},
		{
			"buffer":0,
			"byteLength":24,
			"byteOffset":27284
		},
		{
			"buffer":0,
			"byteLength":1020,
			"byteOffset":27308
		},
		{
			"buffer":0,
			"byteLength":1360,
			"byteOffset":28328
		},
		{
			"buffer":0,
			"byteLength":24,
			"byteOffset":29688
		},
		{
			"buffer":0,
			"byteLength":24,
			"byteOffset":29712
		},
		{
			"buffer":0,
			"byteLength":1360,
			"byteOffset":29736
		},
		{
			"buffer":0,
			"byteLength":24,
			"byteOffset":31096
		},
		{
			"buffer":0,
			"byteLength":24,
			"byteOffset":31120
		},
		{
			"buffer":0,
			"byteLength":1360,
			"byteOffset":31144
		},
		{
			"buffer":0,
			"byteLength":24,
			"byteOffset":32504
		},
		{
			"buffer":0,
			"byteLength":24,
			"byteOffset":32528
		},
		{
			"buffer":0,
			"byteLength":1360,
			"byteOffset":32552
		},
		{
			"buffer":0,
			"byteLength":24,
			"byteOffset":33912
		}
	],
	"buffers":[
		{
			"byteLength":33936,
			"uri":"data:application/octet-stream;base64,"
		}
	]
}
