{
	"asset":{
		"generator":"Khronos glTF Blender I/O v3.6.28",
		"version":"2.0"
	},
	"scene":0,
	"scenes":[
		{
			"name":"Scene",
			"nodes":[
				14
			]
		}
	],
	"nodes":[
		{
			"name":"Bone.010",
			"rotation":[
				-9.536079703664768e-10,
				1.393820170392246e-09,
				-0.005909280851483345,
				0.9999825358390808
			],
			"scale":[
				0.9999998807907104,
				0.9999998807907104,
				1
			],
			"translation":[
				6.165357149257034e-07,
				1.5484737157821655,
				-2.1582735598713043e-13
			]
		},
		{
			"children":[
				0
			],
			"name":"Bone.009",
			"rotation":[
				4.8886693804206516e-08,
				-5.397807001372712e-08,
				0.4835318326950073,
				0.8753267526626587
			],
			"translation":[
				1.7881399116959074e-07,
				1.2974973917007446,
				-3.730349362740526e-14
			]
		},
		{
			"children":[
				1
			],
			"name":"Bone.001",
			"rotation":[
				7.000858914807395e-08,
				-3.713723728537843e-08,
				0.2702035903930664,
				0.9628032445907593
			],
			"scale":[
				1,
				1,
				1.0000001192092896
			],
			"translation":[
				0,
				0.9999997615814209,
				2.842170943040401e-14
			]
		},
		{
			"name":"Bone.008",
			"rotation":[
				5.099557998100579e-10,
				1.466417565154643e-08,
				0.0022256416268646717,
				0.9999974966049194
			],
			"translation":[
				-7.636838716962302e-08,
				1.7758101224899292,
				7.66053886991358e-14
			]
		},
		{
			"children":[
				3
			],
			"name":"Bone.007",
			"rotation":[
				-5.3898112639672036e-08,
				-1.0922686044523289e-07,
				-0.44161456823349,
				0.8972048759460449
			],
			"scale":[
				1,
				1,
				1.0000001192092896
			],
			"translation":[
				2.9802316703353426e-07,
				1.4030735492706299,
				-2.195466031196247e-14
			]
		},
		{
			"children":[
				4
			],
			"name":"Bone.002",
			"rotation":[
				6.359348247997332e-08,
				2.136525623086527e-08,
				-0.3201943337917328,
				0.94735187292099
			],
			"scale":[
				1,
				1,
				1.0000001192092896
			],
			"translation":[
				0,
				0.9999997615814209,
				2.842170943040401e-14
			]
		},
		{
			"name":"Bone.006",
			"rotation":[
				-0.17822937667369843,
				-9.861866419669241e-05,
				0.00571077223867178,
				0.983972430229187
			],
			"scale":[
				1,
				1.0000001192092896,
				1
			],
			"translation":[
				5.2874383982270956e-08,
				1.622406244277954,
				-5.186302587389946e-08
			]
		},
		{
			"children":[
				6
			],
			"name":"Bone.003",
			"rotation":[
				0.0002359605423407629,
				0.08085044473409653,
				0.9967219829559326,
				0.0029088095761835575
			],
			"scale":[
				1.0000001192092896,
				1.0000003576278687,
				1.000007152557373
			],
			"translation":[
				0.7531485557556152,
				-0.10362529754638672,
				-1.4828177086201322e-07
			]
		},
		{
			"name":"Bone.005",
			"rotation":[
				-0.18143394589424133,
				-0.0005712455022148788,
				0.027771586552262306,
				0.9830107688903809
			],
			"scale":[
				1.0000001192092896,
				0.9999998807907104,
				1
			],
			"translation":[
				-1.006723238106133e-08,
				1.6217199563980103,
				-1.862645149230957e-08
			]
		},
		{
			"children":[
				8
			],
			"name":"Bone.004",
			"rotation":[
				0.0031792973168194294,
				0.08082272112369537,
				0.995952308177948,
				0.039200302213430405
			],
			"scale":[
				1.0000016689300537,
				1.0000003576278687,
				1.0000073909759521
			],
			"translation":[
				-0.7222669720649719,
				-0.17247700691223145,
				-1.5715505696789478e-07
			]
		},
		{
			"name":"Bone.012",
			"rotation":[
				-0.0074410587549209595,
				1.384949246130418e-05,
				-0.0018645244417712092,
				0.9999706149101257
			],
			"scale":[
				0.9999998807907104,
				0.9999998211860657,
				0.9999999403953552
			],
			"translation":[
				1.1175868230850483e-08,
				1.6144254207611084,
				1.2545520178264269e-14
			]
		},
		{
			"children":[
				10
			],
			"name":"Bone.011",
			"rotation":[
				6.718570944030944e-08,
				1.842349495184692e-09,
				-0.004545313771814108,
				0.9999896883964539
			],
			"scale":[
				1,
				1.0000001192092896,
				1.0000001192092896
			],
			"translation":[
				0,
				0.9999997615814209,
				2.842170943040401e-14
			]
		},
		{
			"children":[
				2,
				5,
				7,
				9,
				11
			],
			"name":"Bone",
			"rotation":[
				0.7071067690849304,
				0,
				0,
				0.7071067690849304
			],
			"scale":[
				1.0000001192092896,
				1.0000001192092896,
				1.0000001192092896
			],
			"translation":[
				0,
				-2.842170943040401e-14,
				-2.384185791015625e-07
			]
		},
		{
			"mesh":0,
			"name":"Cube.001",
			"skin":0
		},
		{
			"children":[
				13,
				12
			],
			"name":"Armature",
			"scale":[
				0.6706822514533997,
				0.6706822514533997,
				0.6706822514533997
			],
			"translation":[
				0.1033506989479065,
				0,
				2.1014645099639893
			]
		}
	],
	"animations":[
		{
			"channels":[
				{
					"sampler":0,
					"target":{
						"node":12,
						"path":"translation"
					}
				},
				{
					"sampler":1,
					"target":{
						"node":12,
						"path":"rotation"
					}
				},
				{
					"sampler":2,
					"target":{
						"node":12,
						"path":"scale"
					}
				},
				{
					"sampler":3,
					"target":{
						"node":2,
						"path":"translation"
					}
				},
				{
					"sampler":4,
					"target":{
						"node":2,
						"path":"rotation"
					}
				},
				{
					"sampler":5,
					"target":{
						"node":2,
						"path":"scale"
					}
				},
				{
					"sampler":6,
					"target":{
						"node":1,
						"path":"translation"
					}
				},
				{
					"sampler":7,
					"target":{
						"node":1,
						"path":"rotation"
					}
				},
				{
					"sampler":8,
					"target":{
						"node":1,
						"path":"scale"
					}
				},
				{
					"sampler":9,
					"target":{
						"node":0,
						"path":"translation"
					}
				},
				{
					"sampler":10,
					"target":{
						"node":0,
						"path":"rotation"
					}
				},
				{
					"sampler":11,
					"target":{
						"node":0,
						"path":"scale"
					}
				},
				{
					"sampler":12,
					"target":{
						"node":5,
						"path":"translation"
					}
				},
				{
					"sampler":13,
					"target":{
						"node":5,
						"path":"rotation"
					}
				},
				{
					"sampler":14,
					"target":{
						"node":5,
						"path":"scale"
					}
				},
				{
					"sampler":15,
					"target":{
						"node":4,
						"path":"translation"
					}
				},
				{
					"sampler":16,
					"target":{
						"node":4,
						"path":"rotation"
					}
				},
				{
					"sampler":17,
					"target":{
						"node":4,
						"path":"scale"
					}
				},
				{
					"sampler":18,
					"target":{
						"node":3,
						"path":"translation"
					}
				},
				{
					"sampler":19,
					"target":{
						"node":3,
						"path":"rotation"
					}
				},
				{
					"sampler":20,
					"target":{
						"node":3,
						"path":"scale"
					}
				},
				{
					"sampler":21,
					"target":{
						"node":7,
						"path":"translation"
					}
				},
				{
					"sampler":22,
					"target":{
						"node":7,
						"path":"rotation"
					}
				},
				{
					"sampler":23,
					"target":{
						"node":7,
						"path":"scale"
					}
				},
				{
					"sampler":24,
					"target":{
						"node":6,
						"path":"translation"
					}
				},
				{
					"sampler":25,
					"target":{
						"node":6,
						"path":"rotation"
					}
				},
				{
					"sampler":26,
					"target":{
						"node":6,
						"path":"scale"
					}
				},
				{
					"sampler":27,
					"target":{
						"node":9,
						"path":"translation"
					}
				},
				{
					"sampler":28,
					"target":{
						"node":9,
						"path":"rotation"
					}
				},
				{
					"sampler":29,
					"target":{
						"node":9,
						"path":"scale"
					}
				},
				{
					"sampler":30,
					"target":{
						"node":8,
						"path":"translation"
					}
				},
				{
					"sampler":31,
					"target":{
						"node":8,
						"path":"rotation"
					}
				},
				{
					"sampler":32,
					"target":{
						"node":8,
						"path":"scale"
					}
				},
				{
					"sampler":33,
					"target":{
						"node":11,
						"path":"translation"
					}
				},
				{
					"sampler":34,
					"target":{
						"node":11,
						"path":"rotation"
					}
				},
				{
					"sampler":35,
					"target":{
						"node":11,
						"path":"scale"
					}
				},
				{
					"sampler":36,
					"target":{
						"node":10,
						"path":"translation"
					}
				},
				{
					"sampler":37,
					"target":{
						"node":10,
						"path":"rotation"
					}
				},
				{
					"sampler":38,
					"target":{
						"node":10,
						"path":"scale"
					}
				}
			],
			"name":"ArmatureAction",
			"samplers":[
				{
					"input":7,
					"interpolation":"LINEAR",
					"output":8
				},
				{
					"input":7,
					"interpolation":"LINEAR",
					"output":9
				},
				{
					"input":10,
					"interpolation":"STEP",
					"output":11
				},
				{
					"input":10,
					"interpolation":"LINEAR",
					"output":12
				},
				{
					"input":7,
					"interpolation":"LINEAR",
					"output":13
				},
				{
					"input":10,
					"interpolation":"STEP",
					"output":14
				},
				{
					"input":10,
					"interpolation":"LINEAR",
					"output":15
				},
				{
					"input":7,
					"interpolation":"LINEAR",
					"output":16
				},
				{
					"input":10,
					"interpolation":"LINEAR",
					"output":17
				},
				{
					"input":10,
					"interpolation":"STEP",
					"output":18
				},
				{
					"input":10,
					"interpolation":"STEP",
					"output":19
				},
				{
					"input":10,
					"interpolation":"STEP",
					"output":20
				},
				{
					"input":10,
					"interpolation":"STEP",
					"output":21
				},
				{
					"input":10,
					"interpolation":"STEP",
					"output":22
				},
				{
					"input":10,
					"interpolation":"STEP",
					"output":23
				},
				{
					"input":10,
					"interpolation":"LINEAR",
					"output":24
				},
				{
					"input":7,
					"interpolation":"LINEAR",
					"output":25
				},
				{
					"input":10,
					"interpolation":"STEP",
					"output":26
				},
				{
					"input":10,
					"interpolation":"LINEAR",
					"output":27
				},
				{
					"input":7,
					"interpolation":"LINEAR",
					"output":28
				},
				{
					"input":10,
					"interpolation":"STEP",
					"output":29
				},
				{
					"input":7,
					"interpolation":"LINEAR",
					"output":30
				},
				{
					"input":7,
					"interpolation":"LINEAR",
					"output":31
				},
				{
					"input":10,
					"interpolation":"LINEAR",
					"output":32
				},
				{
					"input":10,
					"interpolation":"LINEAR",
					"output":33
				},
				{
					"input":7,
					"interpolation":"LINEAR",
					"output":34
				},
				{
					"input":10,
					"interpolation":"LINEAR",
					"output":35
				},
				{
					"input":7,
					"interpolation":"LINEAR",
					"output":36
				},
				{
					"input":7,
					"interpolation":"LINEAR",
					"output":37
				},
				{
					"input":10,
					"interpolation":"LINEAR",
					"output":38
				},
				{
					"input":10,
					"interpolation":"LINEAR",
					"output":39
				},
				{
					"input":7,
					"interpolation":"LINEAR",
					"output":40
				},
				{
					"input":10,
					"interpolation":"LINEAR",
					"output":41
				},
				{
					"input":10,
					"interpolation":"LINEAR",
					"output":42
				},
				{
					"input":7,
					"interpolation":"LINEAR",
					"output":43
				},
				{
					"input":10,
					"interpolation":"STEP",
					"output":44
				},
				{
					"input":10,
					"interpolation":"LINEAR",
					"output":45
				},
				{
					"input":7,
					"interpolation":"LINEAR",
					"output":46
				},
				{
					"input":10,
					"interpolation":"STEP",
					"output":47
				}
			]
		}
	],
	"materials":[
		{
			"doubleSided":true,
			"name":"Material",
			"pbrMetallicRoughness":{
				"baseColorFactor":[
					0.8000000715255737,
					0.7373580932617188,
					0.474211186170578,
					1
				],
				"metallicFactor":0,
				"roughnessFactor":0.5
			}
		}
	],
	"meshes":[
		{
			"name":"Cube.001",
			"primitives":[
				{
					"attributes":{
						"POSITION":0,
						"NORMAL":1,
						"TEXCOORD_0":2,
						"JOINTS_0":3,
						"WEIGHTS_0":4
					},
					"indices":5,
					"material":0
				}
			]
		}
	],
	"skins":[
		{
			"inverseBindMatrices":6,
			"joints":[
				12,
				2,
				1,
				0,
				5,
				4,
				3,
				7,
				6,
				9,
				8,
				11,
				10
			],
			"name":"Armature"
		}
	],
	"accessors":[
		{
			"bufferView":0,
			"componentType":5126,
			"count":228,
			"max":[
				3.1519267559051514,
				0.23607823252677917,
				4.895689964294434
			],
			"min":[
				-2.5879390239715576,
				-0.4551853835582733,
				-0.0074648866429924965
			],
			"type":"VEC3"
		},
		{
			"bufferView":1,
			"componentType":5126,
			"count":228,
			"type":"VEC3"
		},
		{
			"bufferView":2,
			"componentType":5126,
			"count":228,
			"type":"VEC2"
		},
		{
			"bufferView":3,
			"componentType":5121,
			"count":228,
			"type":"VEC4"
		},
		{
			"bufferView":4,
			"componentType":5126,
			"count":228,
			"type":"VEC4"
		},
		{
			"bufferView":5,
			"componentType":5123,
			"count":468,
			"type":"SCALAR"
		},
		{
			"bufferView":6,
			"componentType":5126,
			"count":13,
			"type":"MAT4"
		},
		{
			"bufferView":7,
			"componentType":5126,
			"count":30,
			"max":[
				1.25
			],
			"min":[
				0.041666666666666664
			],
			"type":"SCALAR"
		},
		{
			"bufferView":8,
			"componentType":5126,
			"count":30,
			"type":"VEC3"
		},
		{
			"bufferView":9,
			"componentType":5126,
			"count":30,
			"type":"VEC4"
		},
		{
			"bufferView":10,
			"componentType":5126,
			"count":2,
			"max":[
				1.25
			],
			"min":[
				0.041666666666666664
			],
			"type":"SCALAR"
		},
		{
			"bufferView":11,
			"componentType":5126,
			"count":2,
			"type":"VEC3"
		},
		{
			"bufferView":12,
			"componentType":5126,
			"count":2,
			"type":"VEC3"
		},
		{
			"bufferView":13,
			"componentType":5126,
			"count":30,
			"type":"VEC4"
		},
		{
			"bufferView":14,
			"componentType":5126,
			"count":2,
			"type":"VEC3"
		},
		{
			"bufferView":15,
			"componentType":5126,
			"count":2,
			"type":"VEC3"
		},
		{
			"bufferView":16,
			"componentType":5126,
			"count":30,
			"type":"VEC4"
		},
		{
			"bufferView":17,
			"componentType":5126,
			"count":2,
			"type":"VEC3"
		},
		{
			"bufferView":18,
			"componentType":5126,
			"count":2,
			"type":"VEC3"
		},
		{
			"bufferView":19,
			"componentType":5126,
			"count":2,
			"type":"VEC4"
		},
		{
			"bufferView":20,
			"componentType":5126,
			"count":2,
			"type":"VEC3"
		},
		{
			"bufferView":21,
			"componentType":5126,
			"count":2,
			"type":"VEC3"
		},
		{
			"bufferView":22,
			"componentType":5126,
			"count":2,
			"type":"VEC4"
		},
		{
			"bufferView":23,
			"componentType":5126,
			"count":2,
			"type":"VEC3"
		},
		{
			"bufferView":24,
			"componentType":5126,
			"count":2,
			"type":"VEC3"
		},
		{
			"bufferView":25,
			"componentType":5126,
			"count":30,
			"type":"VEC4"
		},
		{
			"bufferView":26,
			"componentType":5126,
			"count":2,
			"type":"VEC3"
		},
		{
			"bufferView":27,
			"componentType":5126,
			"count":2,
			"type":"VEC3"
		},
		{
			"bufferView":28,
			"componentType":5126,
			"count":30,
			"type":"VEC4"
		},
		{
			"bufferView":29,
			"componentType":5126,
			"count":2,
			"type":"VEC3"
		},
		{
			"bufferView":30,
			"componentType":5126,
			"count":30,
			"type":"VEC3"
		},
		{
			"bufferView":31,
			"componentType":5126,
			"count":30,
			"type":"VEC4"
		},
		{
			"bufferView":32,
			"componentType":5126,
			"count":2,
			"type":"VEC3"
		},
		{
			"bufferView":33,
			"componentType":5126,
			"count":2,
			"type":"VEC3"
		},
		{
			"bufferView":34,
			"componentType":5126,
			"count":30,
			"type":"VEC4"
		},
		{
			"bufferView":35,
			"componentType":5126,
			"count":2,
			"type":"VEC3"
		},
		{
			"bufferView":36,
			"componentType":5126,
			"count":30,
			"type":"VEC3"
		},
		{
			"bufferView":37,
			"componentType":5126,
			"count":30,
			"type":"VEC4"
		},
		{
			"bufferView":38,
			"componentType":5126,
			"count":2,
			"type":"VEC3"
		},
		{
			"bufferView":39,
			"componentType":5126,
			"count":2,
			"type":"VEC3"
		},
		{
			"bufferView":40,
			"componentType":5126,
			"count":30,
			"type":"VEC4"
		},
		{
			"bufferView":41,
			"componentType":5126,
			"count":2,
			"type":"VEC3"
		},
		{
			"bufferView":42,
			"componentType":5126,
			"count":2,
			"type":"VEC3"
		},
		{
			"bufferView":43,
			"componentType":5126,
			"count":30,
			"type":"VEC4"
		},
		{
			"bufferView":44,
			"componentType":5126,
			"count":2,
			"type":"VEC3"
		},
		{
			"bufferView":45,
			"componentType":5126,
			"count":2,
			"type":"VEC3"
		},
		{
			"bufferView":46,
			"componentType":5126,
			"count":30,
			"type":"VEC4"
		},
		{
			"bufferView":47,
			"componentType":5126,
			"count":2,
			"type":"VEC3"
		}
	],
	"bufferViews":[
		{
			"buffer":0,
			"byteLength":2736,
			"byteOffset":0,
			"target":34962
		},
		{
			"buffer":0,
			"byteLength":2736,
			"byteOffset":2736,
			"target":34962
		},
		{
			"buffer":0,
			"byteLength":1824,
			"byteOffset":5472,
			"target":34962
		},
		{
			"buffer":0,
			"byteLength":912,
			"byteOffset":7296,
			"target":34962
		},
		{
			"buffer":0,
			"byteLength":3648,
			"byteOffset":8208,
			"target":34962
		},
		{
			"buffer":0,
			"byteLength":936,
			"byteOffset":11856,
			"target":34963
		},
		{
			"buffer":0,
			"byteLength":832,
			"byteOffset":12792
		},
		{
			"buffer":0,
			"byteLength":120,
			"byteOffset":13624
		},
		{
			"buffer":0,
			"byteLength":360,
			"byteOffset":13744
		},
		{
			"buffer":0,
			"byteLength":480,
			"byteOffset":14104
		},
		{
			"buffer":0,
			"byteLength":8,
			"byteOffset":14584
		},
		{
			"buffer":0,
			"byteLength":24,
			"byteOffset":14592
		},
		{
			"buffer":0,
			"byteLength":24,
			"byteOffset":14616
		},
		{
			"buffer":0,
			"byteLength":480,
			"byteOffset":14640
		},
		{
			"buffer":0,
			"byteLength":24,
			"byteOffset":15120
		},
		{
			"buffer":0,
			"byteLength":24,
			"byteOffset":15144
		},
		{
			"buffer":0,
			"byteLength":480,
			"byteOffset":15168
		},
		{
			"buffer":0,
			"byteLength":24,
			"byteOffset":15648
		},
		{
			"buffer":0,
			"byteLength":24,
			"byteOffset":15672
		},
		{
			"buffer":0,
			"byteLength":32,
			"byteOffset":15696
		},
		{
			"buffer":0,
			"byteLength":24,
			"byteOffset":15728
		},
		{
			"buffer":0,
			"byteLength":24,
			"byteOffset":15752
		},
		{
			"buffer":0,
			"byteLength":32,
			"byteOffset":15776
		},
		{
			"buffer":0,
			"byteLength":24,
			"byteOffset":15808
		},
		{
			"buffer":0,
			"byteLength":24,
			"byteOffset":15832
		},
		{
			"buffer":0,
			"byteLength":480,
			"byteOffset":15856
		},
		{
			"buffer":0,
			"byteLength":24,
			"byteOffset":16336
		},
		{
			"buffer":0,
			"byteLength":24,
			"byteOffset":16360
		},
		{
			"buffer":0,
			"byteLength":480,
			"byteOffset":16384
		},
		{
			"buffer":0,
			"byteLength":24,
			"byteOffset":16864
		},
		{
			"buffer":0,
			"byteLength":360,
			"byteOffset":16888
		},
		{
			"buffer":0,
			"byteLength":480,
			"byteOffset":17248
		},
		{
			"buffer":0,
			"byteLength":24,
			"byteOffset":17728
		},
		{
			"buffer":0,
			"byteLength":24,
			"byteOffset":17752
		},
		{
			"buffer":0,
			"byteLength":480,
			"byteOffset":17776
		},
		{
			"buffer":0,
			"byteLength":24,
			"byteOffset":18256
		},
		{
			"buffer":0,
			"byteLength":360,
			"byteOffset":18280
		},
		{
			"buffer":0,
			"byteLength":480,
			"byteOffset":18640
		},
		{
			"buffer":0,
			"byteLength":24,
			"byteOffset":19120
		},
		{
			"buffer":0,
			"byteLength":24,
			"byteOffset":19144
		},
		{
			"buffer":0,
			"byteLength":480,
			"byteOffset":19168
		},
		{
			"buffer":0,
			"byteLength":24,
			"byteOffset":19648
		},
		{
			"buffer":0,
			"byteLength":24,
			"byteOffset":19672
		},
		{
			"buffer":0,
			"byteLength":480,
			"byteOffset":19696
		},
		{
			"buffer":0,
			"byteLength":24,
			"byteOffset":20176
		},
		{
			"buffer":0,
			"byteLength":24,
			"byteOffset":20200
		},
		{
			"buffer":0,
			"byteLength":480,
			"byteOffset":20224
		},
		{
			"buffer":0,
			"byteLength":24,
			"byteOffset":20704
		}
	],
	"buffers":[
		{
			"byteLength":20728,
			"uri":"data:application/octet-stream;base64,"
		}
	]
}
