{
	"asset":{
		"generator":"Khronos glTF Blender I/O v3.6.28",
		"version":"2.0"
	},
	"scene":0,
	"scenes":[
		{
			"name":"Scene",
			"nodes":[
				9
			]
		}
	],
	"nodes":[
		{
			"name":"Bone.008",
			"rotation":[
				6.70540822866883e-09,
				8.162741238493254e-08,
				-0.05212879925966263,
				0.9986403584480286
			],
			"scale":[
				0.9999999403953552,
				0.9999998807907104,
				1
			],
			"translation":[
				4.65664340421057e-10,
				0.5089928507804871,
				1.3877787807814457e-15
			]
		},
		{
			"children":[
				0
			],
			"name":"Bone.007",
			"rotation":[
				-4.675642165108407e-11,
				1.2721434927698283e-07,
				0.0009040912264026701,
				0.9999995827674866
			],
			"scale":[
				1,
				0.9999999403953552,
				1
			],
			"translation":[
				-1.2836953722228372e-15,
				0.48402661085128784,
				0
			]
		},
		{
			"children":[
				1
			],
			"name":"Bone.006",
			"rotation":[
				8.81378512185332e-25,
				0,
				7.02684004440677e-24,
				1
			],
			"translation":[
				-1.2836953722228372e-15,
				0.4880508780479431,
				0
			]
		},
		{
			"children":[
				2
			],
			"name":"Bone.005",
			"rotation":[
				8.81378512185332e-25,
				0,
				7.02684004440677e-24,
				1
			],
			"translation":[
				-1.2836953722228372e-15,
				0.5059382915496826,
				0
			]
		},
		{
			"children":[
				3
			],
			"name":"Bone.004",
			"rotation":[
				8.81378512185332e-25,
				0,
				7.02684004440677e-24,
				1
			],
			"translation":[
				-1.2836953722228372e-15,
				0.5174756050109863,
				0
			]
		},
		{
			"children":[
				4
			],
			"name":"Bone.003",
			"rotation":[
				8.81127753025085e-25,
				-3.552713678800501e-15,
				-3.3363667616601475e-21,
				1
			],
			"translation":[
				-1.2836953722228372e-15,
				0.516903281211853,
				-4.440892098500626e-16
			]
		},
		{
			"children":[
				5
			],
			"name":"Bone.002",
			"rotation":[
				5.474953308640465e-15,
				1.441368340238114e-07,
				2.492754092031646e-08,
				1
			],
			"translation":[
				-1.7303755650566188e-10,
				0.5977790355682373,
				-8.159993541327973e-16
			]
		},
		{
			"children":[
				6
			],
			"name":"Bone",
			"rotation":[
				0.4999999403953552,
				0.4999999403953552,
				-0.5000000596046448,
				0.5000001192092896
			],
			"translation":[
				-2.014033555984497,
				1.699024387846748e-08,
				0.05911901593208313
			]
		},
		{
			"mesh":0,
			"name":"Cylinder",
			"skin":0
		},
		{
			"children":[
				8,
				7
			],
			"name":"Armature"
		}
	],
	"animations":[
		{
			"channels":[
				{
					"sampler":0,
					"target":{
						"node":7,
						"path":"translation"
					}
				},
				{
					"sampler":1,
					"target":{
						"node":7,
						"path":"rotation"
					}
				},
				{
					"sampler":2,
					"target":{
						"node":7,
						"path":"scale"
					}
				},
				{
					"sampler":3,
					"target":{
						"node":6,
						"path":"translation"
					}
				},
				{
					"sampler":4,
					"target":{
						"node":6,
						"path":"rotation"
					}
				},
				{
					"sampler":5,
					"target":{
						"node":6,
						"path":"scale"
					}
				},
				{
					"sampler":6,
					"target":{
						"node":5,
						"path":"translation"
					}
				},
				{
					"sampler":7,
					"target":{
						"node":5,
						"path":"rotation"
					}
				},
				{
					"sampler":8,
					"target":{
						"node":5,
						"path":"scale"
					}
				},
				{
					"sampler":9,
					"target":{
						"node":4,
						"path":"translation"
					}
				},
				{
					"sampler":10,
					"target":{
						"node":4,
						"path":"rotation"
					}
				},
				{
					"sampler":11,
					"target":{
						"node":4,
						"path":"scale"
					}
				},
				{
					"sampler":12,
					"target":{
						"node":3,
						"path":"translation"
					}
				},
				{
					"sampler":13,
					"target":{
						"node":3,
						"path":"rotation"
					}
				},
				{
					"sampler":14,
					"target":{
						"node":3,
						"path":"scale"
					}
				},
				{
					"sampler":15,
					"target":{
						"node":2,
						"path":"translation"
					}
				},
				{
					"sampler":16,
					"target":{
						"node":2,
						"path":"rotation"
					}
				},
				{
					"sampler":17,
					"target":{
						"node":2,
						"path":"scale"
					}
				},
				{
					"sampler":18,
					"target":{
						"node":1,
						"path":"translation"
					}
				},
				{
					"sampler":19,
					"target":{
						"node":1,
						"path":"rotation"
					}
				},
				{
					"sampler":20,
					"target":{
						"node":1,
						"path":"scale"
					}
				},
				{
					"sampler":21,
					"target":{
						"node":0,
						"path":"translation"
					}
				},
				{
					"sampler":22,
					"target":{
						"node":0,
						"path":"rotation"
					}
				},
				{
					"sampler":23,
					"target":{
						"node":0,
						"path":"scale"
					}
				}
			],
			"name":"ArmatureAction",
			"samplers":[
				{
					"input":7,
					"interpolation":"STEP",
					"output":8
				},
				{
					"input":7,
					"interpolation":"STEP",
					"output":9
				},
				{
					"input":10,
					"interpolation":"LINEAR",
					"output":11
				},
				{
					"input":7,
					"interpolation":"STEP",
					"output":12
				},
				{
					"input":7,
					"interpolation":"STEP",
					"output":13
				},
				{
					"input":7,
					"interpolation":"STEP",
					"output":14
				},
				{
					"input":7,
					"interpolation":"STEP",
					"output":15
				},
				{
					"input":7,
					"interpolation":"STEP",
					"output":16
				},
				{
					"input":7,
					"interpolation":"STEP",
					"output":17
				},
				{
					"input":7,
					"interpolation":"STEP",
					"output":18
				},
				{
					"input":7,
					"interpolation":"STEP",
					"output":19
				},
				{
					"input":7,
					"interpolation":"STEP",
					"output":20
				},
				{
					"input":7,
					"interpolation":"STEP",
					"output":21
				},
				{
					"input":7,
					"interpolation":"STEP",
					"output":22
				},
				{
					"input":7,
					"interpolation":"STEP",
					"output":23
				},
				{
					"input":7,
					"interpolation":"STEP",
					"output":24
				},
				{
					"input":7,
					"interpolation":"STEP",
					"output":25
				},
				{
					"input":7,
					"interpolation":"STEP",
					"output":26
				},
				{
					"input":7,
					"interpolation":"STEP",
					"output":27
				},
				{
					"input":7,
					"interpolation":"STEP",
					"output":28
				},
				{
					"input":7,
					"interpolation":"STEP",
					"output":29
				},
				{
					"input":7,
					"interpolation":"STEP",
					"output":30
				},
				{
					"input":7,
					"interpolation":"STEP",
					"output":31
				},
				{
					"input":7,
					"interpolation":"STEP",
					"output":32
				}
			]
		},
		{
			"channels":[
				{
					"sampler":0,
					"target":{
						"node":7,
						"path":"translation"
					}
				},
				{
					"sampler":1,
					"target":{
						"node":7,
						"path":"rotation"
					}
				},
				{
					"sampler":2,
					"target":{
						"node":7,
						"path":"scale"
					}
				},
				{
					"sampler":3,
					"target":{
						"node":6,
						"path":"translation"
					}
				},
				{
					"sampler":4,
					"target":{
						"node":6,
						"path":"rotation"
					}
				},
				{
					"sampler":5,
					"target":{
						"node":6,
						"path":"scale"
					}
				},
				{
					"sampler":6,
					"target":{
						"node":5,
						"path":"translation"
					}
				},
				{
					"sampler":7,
					"target":{
						"node":5,
						"path":"rotation"
					}
				},
				{
					"sampler":8,
					"target":{
						"node":5,
						"path":"scale"
					}
				},
				{
					"sampler":9,
					"target":{
						"node":4,
						"path":"translation"
					}
				},
				{
					"sampler":10,
					"target":{
						"node":4,
						"path":"rotation"
					}
				},
				{
					"sampler":11,
					"target":{
						"node":4,
						"path":"scale"
					}
				},
				{
					"sampler":12,
					"target":{
						"node":3,
						"path":"translation"
					}
				},
				{
					"sampler":13,
					"target":{
						"node":3,
						"path":"rotation"
					}
				},
				{
					"sampler":14,
					"target":{
						"node":3,
						"path":"scale"
					}
				},
				{
					"sampler":15,
					"target":{
						"node":2,
						"path":"translation"
					}
				},
				{
					"sampler":16,
					"target":{
						"node":2,
						"path":"rotation"
					}
				},
				{
					"sampler":17,
					"target":{
						"node":2,
						"path":"scale"
					}
				},
				{
					"sampler":18,
					"target":{
						"node":1,
						"path":"translation"
					}
				},
				{
					"sampler":19,
					"target":{
						"node":1,
						"path":"rotation"
					}
				},
				{
					"sampler":20,
					"target":{
						"node":1,
						"path":"scale"
					}
				},
				{
					"sampler":21,
					"target":{
						"node":0,
						"path":"translation"
					}
				},
				{
					"sampler":22,
					"target":{
						"node":0,
						"path":"rotation"
					}
				},
				{
					"sampler":23,
					"target":{
						"node":0,
						"path":"scale"
					}
				}
			],
			"name":"ArmatureAction.002",
			"samplers":[
				{
					"input":33,
					"interpolation":"STEP",
					"output":34
				},
				{
					"input":33,
					"interpolation":"STEP",
					"output":35
				},
				{
					"input":33,
					"interpolation":"STEP",
					"output":36
				},
				{
					"input":33,
					"interpolation":"STEP",
					"output":37
				},
				{
					"input":33,
					"interpolation":"STEP",
					"output":38
				},
				{
					"input":33,
					"interpolation":"STEP",
					"output":39
				},
				{
					"input":33,
					"interpolation":"STEP",
					"output":40
				},
				{
					"input":33,
					"interpolation":"STEP",
					"output":41
				},
				{
					"input":33,
					"interpolation":"STEP",
					"output":42
				},
				{
					"input":33,
					"interpolation":"STEP",
					"output":43
				},
				{
					"input":33,
					"interpolation":"STEP",
					"output":44
				},
				{
					"input":33,
					"interpolation":"STEP",
					"output":45
				},
				{
					"input":33,
					"interpolation":"STEP",
					"output":46
				},
				{
					"input":33,
					"interpolation":"STEP",
					"output":47
				},
				{
					"input":33,
					"interpolation":"STEP",
					"output":48
				},
				{
					"input":33,
					"interpolation":"STEP",
					"output":49
				},
				{
					"input":33,
					"interpolation":"STEP",
					"output":50
				},
				{
					"input":33,
					"interpolation":"STEP",
					"output":51
				},
				{
					"input":33,
					"interpolation":"STEP",
					"output":52
				},
				{
					"input":33,
					"interpolation":"STEP",
					"output":53
				},
				{
					"input":33,
					"interpolation":"STEP",
					"output":54
				},
				{
					"input":33,
					"interpolation":"STEP",
					"output":55
				},
				{
					"input":33,
					"interpolation":"STEP",
					"output":56
				},
				{
					"input":33,
					"interpolation":"STEP",
					"output":57
				}
			]
		}
	],
	"materials":[
		{
			"doubleSided":true,
			"name":"Material.003",
			"pbrMetallicRoughness":{
				"baseColorTexture":{
					"index":0
				},
				"metallicFactor":0,
				"roughnessFactor":0.5
			}
		}
	],
	"meshes":[
		{
			"name":"Cylinder",
			"primitives":[
				{
					"attributes":{
						"POSITION":0,
						"NORMAL":1,
						"TEXCOORD_0":2,
						"JOINTS_0":3,
						"WEIGHTS_0":4
					},
					"indices":5,
					"material":0
				}
			]
		}
	],
	"textures":[
		{
			"sampler":0,
			"source":0
		}
	],
	"images":[
		{
			"bufferView":6,
			"mimeType":"image/png",
			"name":"Piet"
		}
	],
	"skins":[
		{
			"inverseBindMatrices":6,
			"joints":[
				7,
				6,
				5,
				4,
				3,
				2,
				1,
				0
			],
			"name":"Armature"
		}
	],
	"accessors":[
		{
			"bufferView":0,
			"componentType":5126,
			"count":1666,
			"max":[
				1.9716768264770508,
				0.1570754051208496,
				0.24257345497608185
			],
			"min":[
				-2.0914995670318604,
				-0.1511380523443222,
				-0.17517918348312378
			],
			"type":"VEC3"
		},
		{
			"bufferView":1,
			"componentType":5126,
			"count":1666,
			"type":"VEC3"
		},
		{
			"bufferView":2,
			"componentType":5126,
			"count":1666,
			"type":"VEC2"
		},
		{
			"bufferView":3,
			"componentType":5121,
			"count":1666,
			"type":"VEC4"
		},
		{
			"bufferView":4,
			"componentType":5126,
			"count":1666,
			"type":"VEC4"
		},
		{
			"bufferView":5,
			"componentType":5123,
			"count":2820,
			"type":"SCALAR"
		},
		{
			"bufferView":7,
			"componentType":5126,
			"count":8,
			"type":"MAT4"
		},
		{
			"bufferView":8,
			"componentType":5126,
			"count":2,
			"max":[
				0.8333333333333334
			],
			"min":[
				0
			],
			"type":"SCALAR"
		},
		{
			"bufferView":9,
			"componentType":5126,
			"count":2,
			"type":"VEC3"
		},
		{
			"bufferView":10,
			"componentType":5126,
			"count":2,
			"type":"VEC4"
		},
		{
			"bufferView":11,
			"componentType":5126,
			"count":21,
			"max":[
				0.8333333333333334
			],
			"min":[
				0
			],
			"type":"SCALAR"
		},
		{
			"bufferView":12,
			"componentType":5126,
			"count":21,
			"type":"VEC3"
		},
		{
			"bufferView":13,
			"componentType":5126,
			"count":2,
			"type":"VEC3"
		},
		{
			"bufferView":14,
			"componentType":5126,
			"count":2,
			"type":"VEC4"
		},
		{
			"bufferView":15,
			"componentType":5126,
			"count":2,
			"type":"VEC3"
		},
		{
			"bufferView":16,
			"componentType":5126,
			"count":2,
			"type":"VEC3"
		},
		{
			"bufferView":17,
			"componentType":5126,
			"count":2,
			"type":"VEC4"
		},
		{
			"bufferView":18,
			"componentType":5126,
			"count":2,
			"type":"VEC3"
		},
		{
			"bufferView":19,
			"componentType":5126,
			"count":2,
			"type":"VEC3"
		},
		{
			"bufferView":20,
			"componentType":5126,
			"count":2,
			"type":"VEC4"
		},
		{
			"bufferView":21,
			"componentType":5126,
			"count":2,
			"type":"VEC3"
		},
		{
			"bufferView":22,
			"componentType":5126,
			"count":2,
			"type":"VEC3"
		},
		{
			"bufferView":23,
			"componentType":5126,
			"count":2,
			"type":"VEC4"
		},
		{
			"bufferView":24,
			"componentType":5126,
			"count":2,
			"type":"VEC3"
		},
		{
			"bufferView":25,
			"componentType":5126,
			"count":2,
			"type":"VEC3"
		},
		{
			"bufferView":26,
			"componentType":5126,
			"count":2,
			"type":"VEC4"
		},
		{
			"bufferView":27,
			"componentType":5126,
			"count":2,
			"type":"VEC3"
		},
		{
			"bufferView":28,
			"componentType":5126,
			"count":2,
			"type":"VEC3"
		},
		{
			"bufferView":29,
			"componentType":5126,
			"count":2,
			"type":"VEC4"
		},
		{
			"bufferView":30,
			"componentType":5126,
			"count":2,
			"type":"VEC3"
		},
		{
			"bufferView":31,
			"componentType":5126,
			"count":2,
			"type":"VEC3"
		},
		{
			"bufferView":32,
			"componentType":5126,
			"count":2,
			"type":"VEC4"
		},
		{
			"bufferView":33,
			"componentType":5126,
			"count":2,
			"type":"VEC3"
		},
		{
			"bufferView":34,
			"componentType":5126,
			"count":1,
			"max":[
				0.4166666666666667
			],
			"min":[
				0.4166666666666667
			],
			"type":"SCALAR"
		},
		{
			"bufferView":35,
			"componentType":5126,
			"count":1,
			"type":"VEC3"
		},
		{
			"bufferView":36,
			"componentType":5126,
			"count":1,
			"type":"VEC4"
		},
		{
			"bufferView":37,
			"componentType":5126,
			"count":1,
			"type":"VEC3"
		},
		{
			"bufferView":38,
			"componentType":5126,
			"count":1,
			"type":"VEC3"
		},
		{
			"bufferView":39,
			"componentType":5126,
			"count":1,
			"type":"VEC4"
		},
		{
			"bufferView":40,
			"componentType":5126,
			"count":1,
			"type":"VEC3"
		},
		{
			"bufferView":41,
			"componentType":5126,
			"count":1,
			"type":"VEC3"
		},
		{
			"bufferView":42,
			"componentType":5126,
			"count":1,
			"type":"VEC4"
		},
		{
			"bufferView":43,
			"componentType":5126,
			"count":1,
			"type":"VEC3"
		},
		{
			"bufferView":44,
			"componentType":5126,
			"count":1,
			"type":"VEC3"
		},
		{
			"bufferView":45,
			"componentType":5126,
			"count":1,
			"type":"VEC4"
		},
		{
			"bufferView":46,
			"componentType":5126,
			"count":1,
			"type":"VEC3"
		},
		{
			"bufferView":47,
			"componentType":5126,
			"count":1,
			"type":"VEC3"
		},
		{
			"bufferView":48,
			"componentType":5126,
			"count":1,
			"type":"VEC4"
		},
		{
			"bufferView":49,
			"componentType":5126,
			"count":1,
			"type":"VEC3"
		},
		{
			"bufferView":50,
			"componentType":5126,
			"count":1,
			"type":"VEC3"
		},
		{
			"bufferView":51,
			"componentType":5126,
			"count":1,
			"type":"VEC4"
		},
		{
			"bufferView":52,
			"componentType":5126,
			"count":1,
			"type":"VEC3"
		},
		{
			"bufferView":53,
			"componentType":5126,
			"count":1,
			"type":"VEC3"
		},
		{
			"bufferView":54,
			"componentType":5126,
			"count":1,
			"type":"VEC4"
		},
		{
			"bufferView":55,
			"componentType":5126,
			"count":1,
			"type":"VEC3"
		},
		{
			"bufferView":56,
			"componentType":5126,
			"count":1,
			"type":"VEC3"
		},
		{
			"bufferView":57,
			"componentType":5126,
			"count":1,
			"type":"VEC4"
		},
		{
			"bufferView":58,
			"componentType":5126,
			"count":1,
			"type":"VEC3"
		}
	],
	"bufferViews":[
		{
			"buffer":0,
			"byteLength":19992,
			"byteOffset":0,
			"target":34962
		},
		{
			"buffer":0,
			"byteLength":19992,
			"byteOffset":19992,
			"target":34962
		},
		{
			"buffer":0,
			"byteLength":13328,
			"byteOffset":39984,
			"target":34962
		},
		{
			"buffer":0,
			"byteLength":6664,
			"byteOffset":53312,
			"target":34962
		},
		{
			"buffer":0,
			"byteLength":26656,
			"byteOffset":59976,
			"target":34962
		},
		{
			"buffer":0,
			"byteLength":5640,
			"byteOffset":86632,
			"target":34963
		},
		{
			"buffer":0,
			"byteLength":275401,
			"byteOffset":92272
		},
		{
			"buffer":0,
			"byteLength":512,
			"byteOffset":367676
		},
		{
			"buffer":0,
			"byteLength":8,
			"byteOffset":368188
		},
		{
			"buffer":0,
			"byteLength":24,
			"byteOffset":368196
		},
		{
			"buffer":0,
			"byteLength":32,
			"byteOffset":368220
		},
		{
			"buffer":0,
			"byteLength":84,
			"byteOffset":368252
		},
		{
			"buffer":0,
			"byteLength":252,
			"byteOffset":368336
		},
		{
			"buffer":0,
			"byteLength":24,
			"byteOffset":368588
		},
		{
			"buffer":0,
			"byteLength":32,
			"byteOffset":368612
		},
		{
			"buffer":0,
			"byteLength":24,
			"byteOffset":368644
		},
		{
			"buffer":0,
			"byteLength":24,
			"byteOffset":368668
		},
		{
			"buffer":0,
			"byteLength":32,
			"byteOffset":368692
		},
		{
			"buffer":0,
			"byteLength":24,
			"byteOffset":368724
		},
		{
			"buffer":0,
			"byteLength":24,
			"byteOffset":368748
		},
		{
			"buffer":0,
			"byteLength":32,
			"byteOffset":368772
		},
		{
			"buffer":0,
			"byteLength":24,
			"byteOffset":368804
		},
		{
			"buffer":0,
			"byteLength":24,
			"byteOffset":368828
		},
		{
			"buffer":0,
			"byteLength":32,
			"byteOffset":368852
		},
		{
			"buffer":0,
			"byteLength":24,
			"byteOffset":368884
		},
		{
			"buffer":0,
			"byteLength":24,
			"byteOffset":368908
		},
		{
			"buffer":0,
			"byteLength":32,
			"byteOffset":368932
		},
		{
			"buffer":0,
			"byteLength":24,
			"byteOffset":368964
		},
		{
			"buffer":0,
			"byteLength":24,
			"byteOffset":368988
		},
		{
			"buffer":0,
			"byteLength":32,
			"byteOffset":369012
		},
		{
			"buffer":0,
			"byteLength":24,
			"byteOffset":369044
		},
		{
			"buffer":0,
			"byteLength":24,
			"byteOffset":369068
		},
		{
			"buffer":0,
			"byteLength":32,
			"byteOffset":369092
		},
		{
			"buffer":0,
			"byteLength":24,
			"byteOffset":369124
		},
		{
			"buffer":0,
			"byteLength":4,
			"byteOffset":369148
		},
		{
			"buffer":0,
			"byteLength":12,
			"byteOffset":369152
		},
		{
			"buffer":0,
			"byteLength":16,
			"byteOffset":369164
		},
		{
			"buffer":0,
			"byteLength":12,
			"byteOffset":369180
		},
		{
			"buffer":0,
			"byteLength":12,
			"byteOffset":369192
		},
		{
			"buffer":0,
			"byteLength":16,
			"byteOffset":369204
		},
		{
			"buffer":0,
			"byteLength":12,
			"byteOffset":369220
		},
		{
			"buffer":0,
			"byteLength":12,
			"byteOffset":369232
		},
		{
			"buffer":0,
			"byteLength":16,
			"byteOffset":369244
		},
		{
			"buffer":0,
			"byteLength":12,
			"byteOffset":369260
		},
		{
			"buffer":0,
			"byteLength":12,
			"byteOffset":369272
		},
		{
			"buffer":0,
			"byteLength":16,
			"byteOffset":369284
		},
		{
			"buffer":0,
			"byteLength":12,
			"byteOffset":369300
		},
		{
			"buffer":0,
			"byteLength":12,
			"byteOffset":369312
		},
		{
			"buffer":0,
			"byteLength":16,
			"byteOffset":369324
		},
		{
			"buffer":0,
			"byteLength":12,
			"byteOffset":369340
		},
		{
			"buffer":0,
			"byteLength":12,
			"byteOffset":369352
		},
		{
			"buffer":0,
			"byteLength":16,
			"byteOffset":369364
		},
		{
			"buffer":0,
			"byteLength":12,
			"byteOffset":369380
		},
		{
			"buffer":0,
			"byteLength":12,
			"byteOffset":369392
		},
		{
			"buffer":0,
			"byteLength":16,
			"byteOffset":369404
		},
		{
			"buffer":0,
			"byteLength":12,
			"byteOffset":369420
		},
		{
			"buffer":0,
			"byteLength":12,
			"byteOffset":369432
		},
		{
			"buffer":0,
			"byteLength":16,
			"byteOffset":369444
		},
		{
			"buffer":0,
			"byteLength":12,
			"byteOffset":369460
		}
	],
	"samplers":[
		{
			"magFilter":9729,
			"minFilter":9987
		}
	],
	"buffers":[
		{
			"byteLength":369472,
			"uri":"data:application/octet-stream;base64,"
		}
	]
}
