{
	"accessors": [
		{
			"bufferView": 0,
			"byteOffset": 0,
			"componentType": 5126,
			"count": 205,
			"max": [
				1.0,
				0.9999999403953552,
				1.0
			],
			"min": [
				-0.9999999403953552,
				-0.9999999403953552,
				-1.0
			],
			"type": "VEC3"
		},
		{
			"bufferView": 1,
			"byteOffset": 0,
			"componentType": 5126,
			"count": 205,
			"type": "VEC3"
		},
		{
			"bufferView": 2,
			"byteOffset": 0,
			"componentType": 5126,
			"count": 205,
			"type": "VEC2"
		},
		{
			"bufferView": 3,
			"byteOffset": 0,
			"componentType": 5123,
			"count": 960,
			"type": "SCALAR"
		}
	],
	"asset": {
		"extras": {
			"created": "Mon Apr 11 15:23:10 2022"
		},
		"generator": "Gestaltor 2021.7.1 Corn Community",
		"version": "2.0"
	},
	"bufferViews": [
		{
			"buffer": 0,
			"byteLength": 2460,
			"byteOffset": 0
		},
		{
			"buffer": 0,
			"byteLength": 2460,
			"byteOffset": 2460
		},
		{
			"buffer": 0,
			"byteLength": 1640,
			"byteOffset": 4920
		},
		{
			"buffer": 0,
			"byteLength": 1920,
			"byteOffset": 6560
		}
	],
	"buffers": [
		{
			"byteLength": 8480,
			"uri": "data:application/octet-stream;base64,"
		}
	],
	"extensionsUsed": [
		"KHR_materials_unlit"
	],
	"materials": [
		{
			"doubleSided": true,
			"extensions": {
				"KHR_materials_unlit": {}
			},
			"name": "Material.001",
			"pbrMetallicRoughness": {
				"baseColorFactor": [
					1.0,
					1.0,
					1.0,
					1.0
				],
				"metallicFactor": 0.0,
				"roughnessFactor": 0.5
			}
		}
	],
	"meshes": [
		{
			"name": "Icosphere",
			"primitives": [
				{
					"attributes": {
						"NORMAL": 1,
						"POSITION": 0,
						"TEXCOORD_0": 2
					},
					"indices": 3,
					"material": 0,
					"mode": 4
				}
			]
		}
	],
	"nodes": [
		{
			"mesh": 0,
			"name": "Icosphere"
		}
	],
	"scene": 0,
	"scenes": [
		{
			"name": "Scene",
			"nodes": [
				0
			]
		}
	]
}