{
	"asset":{
		"generator":"Khronos glTF Blender I/O v3.6.28",
		"version":"2.0"
	},
	"scene":0,
	"scenes":[
		{
			"name":"Scene",
			"nodes":[
				0
			]
		}
	],
	"nodes":[
		{
			"mesh":0,
			"name":"Icosphere.003"
		}
	],
	"materials":[
		{
			"doubleSided":true,
			"name":"Material.011",
			"pbrMetallicRoughness":{
				"baseColorTexture":{
					"index":0
				},
				"metallicFactor":0,
				"roughnessFactor":0.5
			}
		}
	],
	"meshes":[
		{
			"name":"Icosphere.005",
			"primitives":[
				{
					"attributes":{
						"POSITION":0,
						"NORMAL":1,
						"TEXCOORD_0":2
					},
					"indices":3,
					"material":0
				}
			]
		}
	],
	"textures":[
		{
			"sampler":0,
			"source":0
		}
	],
	"images":[
		{
			"bufferView":4,
			"mimeType":"image/png",
			"name":"Blabbie"
		}
	],
	"accessors":[
		{
			"bufferView":0,
			"componentType":5126,
			"count":632,
			"max":[
				0.4590652883052826,
				0.4758598208427429,
				0.46278247237205505
			],
			"min":[
				-0.4864135682582855,
				-0.47004175186157227,
				-0.47512999176979065
			],
			"type":"VEC3"
		},
		{
			"bufferView":1,
			"componentType":5126,
			"count":632,
			"type":"VEC3"
		},
		{
			"bufferView":2,
			"componentType":5126,
			"count":632,
			"type":"VEC2"
		},
		{
			"bufferView":3,
			"componentType":5123,
			"count":864,
			"type":"SCALAR"
		}
	],
	"bufferViews":[
		{
			"buffer":0,
			"byteLength":7584,
			"byteOffset":0,
			"target":34962
		},
		{
			"buffer":0,
			"byteLength":7584,
			"byteOffset":7584,
			"target":34962
		},
		{
			"buffer":0,
			"byteLength":5056,
			"byteOffset":15168,
			"target":34962
		},
		{
			"buffer":0,
			"byteLength":1728,
			"byteOffset":20224,
			"target":34963
		},
		{
			"buffer":0,
			"byteLength":50507,
			"byteOffset":21952
		}
	],
	"samplers":[
		{
			"magFilter":9729,
			"minFilter":9987
		}
	],
	"buffers":[
		{
			"byteLength":72460,
			"uri":"data:application/octet-stream;base64,"
		}
	]
}
