{
	"asset":{
		"generator":"Khronos glTF Blender I/O v3.6.28",
		"version":"2.0"
	},
	"scene":0,
	"scenes":[
		{
			"name":"Scene",
			"nodes":[
				6
			]
		}
	],
	"nodes":[
		{
			"name":"Bone.001",
			"rotation":[
				-0.3342086374759674,
				3.1143848389092454e-08,
				-0.03148824721574783,
				0.9419729709625244
			],
			"scale":[
				0.9999999403953552,
				1,
				1
			],
			"translation":[
				0,
				1,
				0
			]
		},
		{
			"name":"Bone.002",
			"rotation":[
				0.21992069482803345,
				-3.899611744628828e-09,
				0.1975882351398468,
				0.9552977681159973
			],
			"scale":[
				1,
				0.9999999403953552,
				0.9999999403953552
			],
			"translation":[
				0,
				1,
				0
			]
		},
		{
			"name":"Bone.003",
			"rotation":[
				-0.3175775408744812,
				-0.050754088908433914,
				-0.17297251522541046,
				0.9309398531913757
			],
			"translation":[
				3.242034673690796,
				7.23659610748291,
				-5.226216793060303
			]
		},
		{
			"name":"Bone.004",
			"rotation":[
				0.2726512551307678,
				0.03918860852718353,
				0.07473556697368622,
				0.9584050178527832
			],
			"scale":[
				0.9999999403953552,
				0.9999999403953552,
				0.9999999403953552
			],
			"translation":[
				-2.1843388080596924,
				9.540206909179688,
				6.135834217071533
			]
		},
		{
			"children":[
				0,
				1,
				2,
				3
			],
			"name":"Bone",
			"translation":[
				0,
				5.960464477539063e-08,
				0
			]
		},
		{
			"mesh":0,
			"name":"Icosphere",
			"skin":0
		},
		{
			"children":[
				5,
				4
			],
			"name":"Armature",
			"scale":[
				0.3824467658996582,
				0.3824467658996582,
				0.3824467658996582
			],
			"translation":[
				0,
				-0.23189938068389893,
				0
			]
		}
	],
	"animations":[
		{
			"channels":[
				{
					"sampler":0,
					"target":{
						"node":4,
						"path":"translation"
					}
				},
				{
					"sampler":1,
					"target":{
						"node":4,
						"path":"rotation"
					}
				},
				{
					"sampler":2,
					"target":{
						"node":4,
						"path":"scale"
					}
				},
				{
					"sampler":3,
					"target":{
						"node":0,
						"path":"translation"
					}
				},
				{
					"sampler":4,
					"target":{
						"node":0,
						"path":"rotation"
					}
				},
				{
					"sampler":5,
					"target":{
						"node":0,
						"path":"scale"
					}
				},
				{
					"sampler":6,
					"target":{
						"node":1,
						"path":"translation"
					}
				},
				{
					"sampler":7,
					"target":{
						"node":1,
						"path":"rotation"
					}
				},
				{
					"sampler":8,
					"target":{
						"node":1,
						"path":"scale"
					}
				},
				{
					"sampler":9,
					"target":{
						"node":2,
						"path":"translation"
					}
				},
				{
					"sampler":10,
					"target":{
						"node":2,
						"path":"rotation"
					}
				},
				{
					"sampler":11,
					"target":{
						"node":2,
						"path":"scale"
					}
				},
				{
					"sampler":12,
					"target":{
						"node":3,
						"path":"translation"
					}
				},
				{
					"sampler":13,
					"target":{
						"node":3,
						"path":"rotation"
					}
				},
				{
					"sampler":14,
					"target":{
						"node":3,
						"path":"scale"
					}
				}
			],
			"name":"ArmatureAction",
			"samplers":[
				{
					"input":8,
					"interpolation":"STEP",
					"output":9
				},
				{
					"input":8,
					"interpolation":"STEP",
					"output":10
				},
				{
					"input":8,
					"interpolation":"STEP",
					"output":11
				},
				{
					"input":8,
					"interpolation":"STEP",
					"output":12
				},
				{
					"input":13,
					"interpolation":"LINEAR",
					"output":14
				},
				{
					"input":8,
					"interpolation":"STEP",
					"output":15
				},
				{
					"input":8,
					"interpolation":"STEP",
					"output":16
				},
				{
					"input":13,
					"interpolation":"LINEAR",
					"output":17
				},
				{
					"input":8,
					"interpolation":"STEP",
					"output":18
				},
				{
					"input":13,
					"interpolation":"LINEAR",
					"output":19
				},
				{
					"input":13,
					"interpolation":"LINEAR",
					"output":20
				},
				{
					"input":8,
					"interpolation":"STEP",
					"output":21
				},
				{
					"input":13,
					"interpolation":"LINEAR",
					"output":22
				},
				{
					"input":13,
					"interpolation":"LINEAR",
					"output":23
				},
				{
					"input":8,
					"interpolation":"STEP",
					"output":24
				}
			]
		}
	],
	"materials":[
		{
			"doubleSided":true,
			"name":"Material.001",
			"pbrMetallicRoughness":{
				"metallicFactor":0,
				"roughnessFactor":0.5
			}
		}
	],
	"meshes":[
		{
			"name":"Icosphere",
			"primitives":[
				{
					"attributes":{
						"POSITION":0,
						"NORMAL":1,
						"TEXCOORD_0":2,
						"TANGENT":3,
						"JOINTS_0":4,
						"WEIGHTS_0":5
					},
					"indices":6,
					"material":0
				}
			]
		}
	],
	"skins":[
		{
			"inverseBindMatrices":7,
			"joints":[
				4,
				0,
				1,
				2,
				3
			],
			"name":"Armature"
		}
	],
	"accessors":[
		{
			"bufferView":0,
			"componentType":5126,
			"count":312,
			"max":[
				2.917689085006714,
				4.757471561431885,
				3.6960437297821045
			],
			"min":[
				-1.6854134798049927,
				-0.5458214282989502,
				-3.6584324836730957
			],
			"type":"VEC3"
		},
		{
			"bufferView":1,
			"componentType":5126,
			"count":312,
			"type":"VEC3"
		},
		{
			"bufferView":2,
			"componentType":5126,
			"count":312,
			"type":"VEC2"
		},
		{
			"bufferView":3,
			"componentType":5126,
			"count":312,
			"type":"VEC4"
		},
		{
			"bufferView":4,
			"componentType":5121,
			"count":312,
			"type":"VEC4"
		},
		{
			"bufferView":5,
			"componentType":5126,
			"count":312,
			"type":"VEC4"
		},
		{
			"bufferView":6,
			"componentType":5123,
			"count":348,
			"type":"SCALAR"
		},
		{
			"bufferView":7,
			"componentType":5126,
			"count":5,
			"type":"MAT4"
		},
		{
			"bufferView":8,
			"componentType":5126,
			"count":2,
			"max":[
				1.6666666666666667
			],
			"min":[
				0
			],
			"type":"SCALAR"
		},
		{
			"bufferView":9,
			"componentType":5126,
			"count":2,
			"type":"VEC3"
		},
		{
			"bufferView":10,
			"componentType":5126,
			"count":2,
			"type":"VEC4"
		},
		{
			"bufferView":11,
			"componentType":5126,
			"count":2,
			"type":"VEC3"
		},
		{
			"bufferView":12,
			"componentType":5126,
			"count":2,
			"type":"VEC3"
		},
		{
			"bufferView":13,
			"componentType":5126,
			"count":41,
			"max":[
				1.6666666666666667
			],
			"min":[
				0
			],
			"type":"SCALAR"
		},
		{
			"bufferView":14,
			"componentType":5126,
			"count":41,
			"type":"VEC4"
		},
		{
			"bufferView":15,
			"componentType":5126,
			"count":2,
			"type":"VEC3"
		},
		{
			"bufferView":16,
			"componentType":5126,
			"count":2,
			"type":"VEC3"
		},
		{
			"bufferView":17,
			"componentType":5126,
			"count":41,
			"type":"VEC4"
		},
		{
			"bufferView":18,
			"componentType":5126,
			"count":2,
			"type":"VEC3"
		},
		{
			"bufferView":19,
			"componentType":5126,
			"count":41,
			"type":"VEC3"
		},
		{
			"bufferView":20,
			"componentType":5126,
			"count":41,
			"type":"VEC4"
		},
		{
			"bufferView":21,
			"componentType":5126,
			"count":2,
			"type":"VEC3"
		},
		{
			"bufferView":22,
			"componentType":5126,
			"count":41,
			"type":"VEC3"
		},
		{
			"bufferView":23,
			"componentType":5126,
			"count":41,
			"type":"VEC4"
		},
		{
			"bufferView":24,
			"componentType":5126,
			"count":2,
			"type":"VEC3"
		}
	],
	"bufferViews":[
		{
			"buffer":0,
			"byteLength":3744,
			"byteOffset":0,
			"target":34962
		},
		{
			"buffer":0,
			"byteLength":3744,
			"byteOffset":3744,
			"target":34962
		},
		{
			"buffer":0,
			"byteLength":2496,
			"byteOffset":7488,
			"target":34962
		},
		{
			"buffer":0,
			"byteLength":4992,
			"byteOffset":9984,
			"target":34962
		},
		{
			"buffer":0,
			"byteLength":1248,
			"byteOffset":14976,
			"target":34962
		},
		{
			"buffer":0,
			"byteLength":4992,
			"byteOffset":16224,
			"target":34962
		},
		{
			"buffer":0,
			"byteLength":696,
			"byteOffset":21216,
			"target":34963
		},
		{
			"buffer":0,
			"byteLength":320,
			"byteOffset":21912
		},
		{
			"buffer":0,
			"byteLength":8,
			"byteOffset":22232
		},
		{
			"buffer":0,
			"byteLength":24,
			"byteOffset":22240
		},
		{
			"buffer":0,
			"byteLength":32,
			"byteOffset":22264
		},
		{
			"buffer":0,
			"byteLength":24,
			"byteOffset":22296
		},
		{
			"buffer":0,
			"byteLength":24,
			"byteOffset":22320
		},
		{
			"buffer":0,
			"byteLength":164,
			"byteOffset":22344
		},
		{
			"buffer":0,
			"byteLength":656,
			"byteOffset":22508
		},
		{
			"buffer":0,
			"byteLength":24,
			"byteOffset":23164
		},
		{
			"buffer":0,
			"byteLength":24,
			"byteOffset":23188
		},
		{
			"buffer":0,
			"byteLength":656,
			"byteOffset":23212
		},
		{
			"buffer":0,
			"byteLength":24,
			"byteOffset":23868
		},
		{
			"buffer":0,
			"byteLength":492,
			"byteOffset":23892
		},
		{
			"buffer":0,
			"byteLength":656,
			"byteOffset":24384
		},
		{
			"buffer":0,
			"byteLength":24,
			"byteOffset":25040
		},
		{
			"buffer":0,
			"byteLength":492,
			"byteOffset":25064
		},
		{
			"buffer":0,
			"byteLength":656,
			"byteOffset":25556
		},
		{
			"buffer":0,
			"byteLength":24,
			"byteOffset":26212
		}
	],
	"buffers":[
		{
			"byteLength":26236,
			"uri":"data:application/octet-stream;base64,"
		}
	]
}
