{
	"asset":{
		"generator":"Khronos glTF Blender I/O v3.6.28",
		"version":"2.0"
	},
	"scene":0,
	"scenes":[
		{
			"name":"Scene",
			"nodes":[
				0
			]
		}
	],
	"nodes":[
		{
			"mesh":0,
			"name":"Icosphere"
		}
	],
	"materials":[
		{
			"doubleSided":true,
			"name":"Material.012",
			"pbrMetallicRoughness":{
				"baseColorTexture":{
					"index":0
				},
				"metallicFactor":0,
				"roughnessFactor":0.5
			}
		}
	],
	"meshes":[
		{
			"name":"Icosphere.006",
			"primitives":[
				{
					"attributes":{
						"COLOR_0":0,
						"POSITION":1,
						"NORMAL":2,
						"TEXCOORD_0":3
					},
					"indices":4,
					"material":0
				}
			]
		}
	],
	"textures":[
		{
			"sampler":0,
			"source":0
		}
	],
	"images":[
		{
			"bufferView":5,
			"mimeType":"image/png",
			"name":"Shivie"
		}
	],
	"accessors":[
		{
			"bufferView":0,
			"componentType":5123,
			"count":1212,
			"normalized":true,
			"type":"VEC4"
		},
		{
			"bufferView":1,
			"componentType":5126,
			"count":1212,
			"max":[
				0.6664835810661316,
				0.3572765588760376,
				0.6981195211410522
			],
			"min":[
				-0.5657744407653809,
				-0.3484675884246826,
				-0.35900935530662537
			],
			"type":"VEC3"
		},
		{
			"bufferView":2,
			"componentType":5126,
			"count":1212,
			"type":"VEC3"
		},
		{
			"bufferView":3,
			"componentType":5126,
			"count":1212,
			"type":"VEC2"
		},
		{
			"bufferView":4,
			"componentType":5123,
			"count":1824,
			"type":"SCALAR"
		}
	],
	"bufferViews":[
		{
			"buffer":0,
			"byteLength":9696,
			"byteOffset":0,
			"target":34962
		},
		{
			"buffer":0,
			"byteLength":14544,
			"byteOffset":9696,
			"target":34962
		},
		{
			"buffer":0,
			"byteLength":14544,
			"byteOffset":24240,
			"target":34962
		},
		{
			"buffer":0,
			"byteLength":9696,
			"byteOffset":38784,
			"target":34962
		},
		{
			"buffer":0,
			"byteLength":3648,
			"byteOffset":48480,
			"target":34963
		},
		{
			"buffer":0,
			"byteLength":221854,
			"byteOffset":52128
		}
	],
	"samplers":[
		{
			"magFilter":9729,
			"minFilter":9987
		}
	],
	"buffers":[
		{
			"byteLength":273984,
			"uri":"data:application/octet-stream;base64,"
		}
	]
}
